<svg width="100" height="100" viewBox="0 0 100 100" fill="none" xmlns="http://www.w3.org/2000/svg">
<g clip-path="url(#clip0_12_100)">
<path d="M25.4472 66.1056C25.1491 66.7019 24.8509 67.2981 24.5528 67.8944C25.4159 68.2515 26.276 68.6146 27.1332 68.9836C30.5618 70.4597 33.9429 72.0309 37.2764 73.6972C37.2819 73.7 37.2874 73.7027 37.293 73.7055C41.4541 75.7861 44.9444 79.2083 49.1056 81.2889C49.1056 81.2889 49.1056 81.2889 49.1056 81.2889C53.2622 83.3672 58.0896 84.1038 62.2463 86.1821C62.2563 86.1872 62.2663 86.1922 62.2764 86.1972C65.6089 87.8656 68.7986 89.8195 72.0753 91.5994C72.8797 92.0363 73.6893 92.4627 74.5075 92.8718C74.5226 92.8793 74.6122 92.7378 74.7764 92.4472C74.9255 92.1491 75.0745 91.8509 75.2236 91.5528C75.3576 91.2471 75.417 91.0905 75.4019 91.0829C74.5837 90.6738 73.7568 90.282 72.9247 89.9006C69.5348 88.3471 66.0578 86.9677 62.7236 85.3028C62.7136 85.2978 62.7035 85.2927 62.6935 85.2877C58.5368 83.2094 55.051 79.7895 50.8944 77.7111C50.8944 77.7111 50.8944 77.7111 50.8944 77.7111C46.7333 75.6306 41.9013 74.8916 37.7402 72.8111C37.7346 72.8083 37.7291 72.8055 37.7236 72.8028C34.3904 71.1358 31.1048 69.3737 27.8668 67.5164C27.0573 67.0521 26.2508 66.5818 25.4472 66.1056Z" fill="#dcb700"/>
<path d="M74.5528 66.1056C74.8509 66.7019 75.1491 67.2981 75.4472 67.8944C74.5841 68.2515 73.724 68.6146 72.8668 68.9836C69.4382 70.4597 66.0571 72.0309 62.7236 73.6972C62.7181 73.7 62.7126 73.7027 62.707 73.7055C58.5459 75.7861 55.0556 79.2083 50.8944 81.2889C50.8944 81.2889 50.8944 81.2889 50.8944 81.2889C46.7378 83.3672 41.9104 84.1038 37.7537 86.1821C37.7437 86.1872 37.7337 86.1922 37.7236 86.1972C34.3911 87.8656 31.2014 89.8195 27.9247 91.5994C27.1203 92.0363 26.3107 92.4627 25.4925 92.8718C25.4774 92.8793 25.3878 92.7378 25.2236 92.4472C25.0745 92.1491 24.9255 91.8509 24.7764 91.5528C24.6424 91.2471 24.583 91.0905 24.5981 91.0829C25.4163 90.6738 26.2432 90.282 27.0753 89.9006C30.4652 88.3471 33.9422 86.9677 37.2764 85.3028C37.2864 85.2978 37.2965 85.2927 37.3065 85.2877C41.4632 83.2094 44.949 79.7895 49.1056 77.7111C49.1056 77.7111 49.1056 77.7111 49.1056 77.7111C53.2667 75.6306 58.0987 74.8916 62.2598 72.8111C62.2654 72.8083 62.2709 72.8055 62.2764 72.8028C65.6096 71.1358 68.8952 69.3737 72.1332 67.5164C72.9427 67.0521 73.7492 66.5818 74.5528 66.1056Z" fill="#dcb700"/>
<path d="M27.25 88C25.75 88 24.25 88 22.75 88C23.0763 88.3873 23.3494 88.7747 23.5692 89.162C24.0231 89.9617 24.25 90.7614 24.25 91.561C24.25 91.7074 24.25 91.8537 24.25 92C24.25 93.2189 24.25 94.4377 24.25 95.6566L25.5854 95.1877C23.9187 93.1069 22.252 91.026 20.5854 88.9452L19.25 87.278V89.4141C19.25 90.4427 19.25 91.4714 19.25 92.5C19.25 92.6851 19.25 92.8702 19.25 93.0554C19.25 93.9829 19.0012 94.9104 18.5036 95.838C18.2958 96.2253 18.0446 96.6127 17.75 97C19.25 97 20.75 97 22.25 97C21.9554 96.6127 21.7042 96.2253 21.4964 95.838C20.9988 94.9104 20.75 93.9829 20.75 93.0554C20.75 92.8702 20.75 92.6851 20.75 92.5C20.75 91.4714 20.75 90.4427 20.75 89.4141L19.4146 89.8829C21.0813 91.9638 22.748 94.0446 24.4146 96.1255L25.75 97.7927V95.6566C25.75 94.4377 25.75 93.2189 25.75 92C25.75 91.8537 25.75 91.7074 25.75 91.561C25.75 90.7614 25.9769 89.9617 26.4308 89.162C26.6506 88.7747 26.9237 88.3873 27.25 88Z" fill="#dcb700"/>
<path d="M22.25 63C20.75 63 19.25 63 17.75 63C18.0763 63.4081 18.3494 63.8162 18.5692 64.2243C19.0231 65.0669 19.25 65.9094 19.25 66.7519C19.25 68.168 19.25 69.584 19.25 71L19.25 73.3015L20.606 71.4419C21.4393 70.299 22.2727 69.1562 23.106 68.0133L21.894 68.0133C22.7273 69.1562 23.5607 70.299 24.394 71.4419L25.75 73.3015L25.75 71C25.75 69.7187 25.75 68.4374 25.75 67.1561C25.75 66.1788 25.9988 65.2016 26.4964 64.2243C26.7042 63.8162 26.9554 63.4081 27.25 63C25.75 63 24.25 63 22.75 63C23.0446 63.4081 23.2958 63.8162 23.5036 64.2243C24.0012 65.2016 24.25 66.1788 24.25 67.1561C24.25 68.4374 24.25 69.7187 24.25 71L25.606 70.5581C24.7727 69.4153 23.9393 68.2724 23.106 67.1295L22.5 66.2985L21.894 67.1295C21.0607 68.2724 20.2273 69.4153 19.394 70.5581L20.75 71C20.75 69.584 20.75 68.168 20.75 66.7519C20.75 65.9094 20.9769 65.0669 21.4308 64.2243C21.6506 63.8162 21.9237 63.4081 22.25 63Z" fill="#dcb700"/>
<path d="M80 88.5C80 87.5 80 86.5 80 85.5C79.65 85.6632 79.3 85.7997 78.95 85.9096C78.2274 86.1365 77.5049 86.25 76.7823 86.25C75.8549 86.25 74.9274 86.2135 74 86.1684L73.2107 86.13L73.1684 87C73.0955 88.5 73 90 73 91.5C73 91.5 73 91.5 73 91.5C73 93 73.1052 94.5 73.1792 96L73.1408 96.7785L74 96.8208C74.8119 96.7808 75.6238 96.75 76.4357 96.75C77.2738 96.75 78.1119 96.8744 78.95 97.1232C79.3 97.2271 79.65 97.3527 80 97.5C80 96.5 80 95.5 80 94.5C79.65 94.6473 79.3 94.7729 78.95 94.8768C78.1119 95.1256 77.2738 95.25 76.4357 95.25C75.6238 95.25 74.8119 95.2192 74 95.1792L74.8208 96C74.8948 94.5 75 93 75 91.5C75 91.5 75 91.5 75 91.5C75 90 74.9045 88.5 74.8316 87L74 87.8316C74.9274 87.7865 75.8549 87.75 76.7823 87.75C77.5049 87.75 78.2274 87.8635 78.95 88.0904C79.3 88.2003 79.65 88.3368 80 88.5Z" fill="#dcb700"/>
<path d="M74 90C74 90.6667 74 91.3333 74 92C74.0512 92 74.1016 92 74.1511 92C74.6208 92 75.0891 92 75.5592 92C75.9875 92 76.421 92.2676 76.8507 92.8028C76.9005 92.8649 76.9511 92.9306 77 93C77 91.6667 77 90.3333 77 89C76.9511 89.0694 76.9005 89.1351 76.8507 89.1972C76.421 89.7324 75.9875 90 75.5592 90C75.0891 90 74.6208 90 74.1511 90C74.1016 90 74.0512 90 74 90Z" fill="#dcb700"/>
<path d="M75.25 69.75C74.4167 69.75 73.5833 69.75 72.75 69.75C72.8721 70.2883 73.0928 70.8412 73.4451 71.2912C74.3162 72.3647 75.4527 72.5886 76.5 72.625C76.5097 72.625 76.5195 72.625 76.5293 72.6249C77.2942 72.6015 78.025 72.4401 78.7223 71.9618C79.4279 71.4931 79.8825 70.5696 79.9373 69.75C80.0422 68.943 79.7333 67.8515 78.9924 67.204C78.2636 66.5529 77.44 66.276 76.5298 66.2501C76.5198 66.25 76.5099 66.25 76.5 66.25C76.17 66.2521 75.7192 66.1539 75.469 66.0164C75.2147 65.8817 75.0189 65.6925 74.9351 65.25C74.8597 64.823 74.9083 64.4673 75.1943 64.1544C75.4732 63.8447 76.0079 63.63 76.4865 63.6251C76.4911 63.625 76.4956 63.625 76.5 63.625C77.1843 63.6169 77.9226 64.1158 77.924 64.6143C77.9402 64.8245 77.8738 65.0331 77.75 65.25C78.5833 65.25 79.4167 65.25 80.25 65.25C80.1277 64.7117 79.9069 64.1588 79.5546 63.7089C78.6835 62.6357 77.5473 62.4118 76.5 62.375C76.4923 62.375 76.4845 62.375 76.4767 62.3751C75.7103 62.3972 74.9788 62.5586 74.2807 63.0368C73.5743 63.5054 73.1192 64.4299 73.0649 65.25C72.9594 66.0606 73.274 67.1584 74.0205 67.8042C74.7555 68.454 75.5798 68.7294 76.5 68.75C76.503 68.75 76.506 68.75 76.5091 68.75C76.8437 68.7516 77.2858 68.851 77.5335 68.9879C77.7845 69.1219 77.9789 69.3103 78.0627 69.75C78.1385 70.176 78.091 70.531 77.8064 70.8439C77.5289 71.1538 76.9958 71.3691 76.517 71.3749C76.5113 71.375 76.5056 71.375 76.5 71.375C75.8157 71.3827 75.0777 70.8838 75.0763 70.3855C75.0601 70.1754 75.1263 69.9669 75.25 69.75Z" fill="#dcb700"/>
<path d="M48.7197 60.8994L48.7334 60.9229L48.749 60.9463C48.8242 61.0516 48.8984 61.1472 48.9658 61.2324C48.9437 61.2952 48.9209 61.3637 48.8975 61.4385L48.835 61.6543C48.6786 62.1859 48.7961 62.6215 48.8867 62.8623L48.8887 62.8682C48.9848 63.115 49.0908 63.2753 49.167 63.3896L49.1729 63.3984C49.248 63.5059 49.323 63.6073 49.3877 63.6904C49.3848 63.7093 49.3833 63.7298 49.3799 63.751C49.3392 64.001 49.2933 64.1861 49.2334 64.5205C49.1859 64.7762 49.1919 64.9835 49.248 65.167C49.2747 65.254 49.3083 65.3206 49.3301 65.3623C49.3579 65.4156 49.3515 65.4041 49.3486 65.3965L49.3613 65.4287L49.3779 65.46C49.4529 65.5985 49.5276 65.7028 49.5869 65.7852L49.5879 65.7881C49.7037 65.9468 49.7768 66.0396 49.8457 66.1357C49.843 66.2364 49.8345 66.4242 49.8398 66.585L49.8408 66.5957C49.8521 66.8019 49.9126 66.9591 49.9551 67.0596L49.959 67.0674C50.0201 67.2053 50.0928 67.3346 50.1348 67.4141C50.1554 67.4531 50.1709 67.4841 50.1826 67.5098C50.1767 67.5423 50.1727 67.5776 50.1641 67.6133L50.1631 67.6211L50.1611 67.6289C50.1605 67.631 50.1576 67.6387 50.1504 67.6543C50.1395 67.6777 50.1247 67.7052 50.0996 67.75L50.876 68.3604C50.9429 68.2983 51.0662 68.1836 51.1592 68.0264L51.1602 68.0273C51.2166 67.935 51.2861 67.8192 51.3447 67.6768L51.375 67.6025L51.3809 67.5215L51.3828 67.4941V67.4922C51.3955 67.3024 51.3705 67.1304 51.3477 67.001C51.321 66.8501 51.3051 66.7893 51.2988 66.7197L51.3047 66.6777C51.3021 66.6891 51.3027 66.6825 51.3232 66.6377C51.3386 66.6041 51.3677 66.5358 51.3984 66.459C51.4242 68.2227 51.4473 69.9863 51.4639 71.75C51.4869 74.2057 51.5 76.6615 51.5 79.1172C51.5 80.0364 51.3818 80.9558 51.2266 81.875C50.9305 83.6283 50.5 85.3815 50.5 87.1348C50.5 87.4065 50.5431 87.6785 50.6143 87.9502C50.9644 89.2867 52 90.6234 52 91.96C51.9987 91.9733 51.6653 91.9867 51 92H49C48.3347 91.9867 48.0013 91.9733 48 91.96C48 90.6234 49.0356 89.2867 49.3857 87.9502C49.4569 87.6785 49.5 87.4065 49.5 87.1348C49.5 85.3815 49.0695 83.6283 48.7734 81.875C48.6182 80.9558 48.5 80.0364 48.5 79.1172C48.5 76.6615 48.5131 74.2057 48.5361 71.75C48.5557 69.6667 48.582 67.5833 48.6143 65.5C48.6382 63.9541 48.665 62.4082 48.6943 60.8623C48.7024 60.8752 48.7124 60.8863 48.7197 60.8994ZM51.3809 65.2461L51.3555 65.166C51.3321 65.0987 51.3096 65.037 51.292 64.9863C51.3184 64.9391 51.3449 64.8877 51.374 64.8359C51.3762 64.9727 51.3787 65.1094 51.3809 65.2461ZM51.335 62.5449C51.3354 62.5703 51.3355 62.5957 51.3359 62.6211C51.3139 62.6301 51.2912 62.6382 51.2676 62.6445C51.2472 62.5835 51.2276 62.5283 51.21 62.4775L51.2568 62.4746L51.335 62.5449ZM49.4639 61.0537C49.4665 61.057 49.469 61.0603 49.4717 61.0635C49.4938 61.0901 49.5162 61.1145 49.5352 61.1367C49.5267 61.1593 49.5178 61.1823 49.5088 61.2061C49.495 61.2021 49.481 61.1993 49.4678 61.1943L49.5352 61.1367L49.2422 61.0254C49.2396 61.0218 49.2368 61.0183 49.2344 61.0146L49.4639 61.0537ZM52 11C51.2652 11.8697 50.8013 12.7397 50.6064 13.6094L50.6035 13.6025C50.5845 13.5608 50.5708 13.5279 50.5605 13.501C50.5682 13.4696 50.5745 13.4355 50.585 13.4014L50.5879 13.3936L50.5898 13.3867C50.5899 13.3867 50.5917 13.3789 50.6016 13.3604C50.6135 13.338 50.6298 13.3123 50.6572 13.2695L49.918 12.6143C49.8464 12.6732 49.7114 12.7834 49.6084 12.9404V12.9414C49.5481 13.0284 49.4752 13.1366 49.4111 13.2695L49.377 13.3389L49.3662 13.416L49.3623 13.4434L49.3613 13.4512C49.3606 13.4567 49.36 13.4623 49.3594 13.4678C49.1474 12.6453 48.6949 11.8225 48 11H52Z" fill="#dcb700"/>
<circle cx="50" cy="72" r="4" fill="#dcb700"/>
<path d="M56 97C56 96.2121 55.8448 95.4319 55.5433 94.7039C55.2417 93.9759 54.7998 93.3145 54.2426 92.7574C53.6855 92.2002 53.0241 91.7583 52.2961 91.4567C51.5681 91.1552 50.7879 91 50 91C49.2121 91 48.4319 91.1552 47.7039 91.4567C46.9759 91.7583 46.3145 92.2002 45.7574 92.7574C45.2002 93.3145 44.7583 93.9759 44.4567 94.7039C44.1552 95.4319 44 96.2121 44 97L50 97H56Z" fill="#dcb700"/>
<path d="M47 12C49 12 51 12 53 12C52.9708 11.8333 52.944 11.6667 52.9183 11.5C52.7971 10.7139 52.7006 9.92788 52.5 9.14182C52.2471 8.15099 51.4682 7.16016 51.1425 6.16932C50.7404 4.94622 50.4561 3.72311 50.1341 2.5C50.0902 2.33333 50.0457 2.16667 50 2C49.9543 2.16667 49.9098 2.33333 49.8659 2.5C49.5439 3.72311 49.2596 4.94622 48.8575 6.16932C48.5318 7.16016 47.7529 8.15099 47.5 9.14182C47.2994 9.92788 47.2029 10.7139 47.0817 11.5C47.056 11.6667 47.0292 11.8333 47 12Z" fill="#dcb700"/>
<path d="M50.2363 13C50.183 13.0831 50.1322 13.1641 50.1074 13.2549C50.081 13.341 50.0582 13.4317 50.0449 13.5156C50.0829 13.7149 50.2005 13.8943 50.29 14.1338C50.32 14.2182 50.3492 14.3142 50.3486 14.4346C50.34 14.7682 50.267 15.0986 50.3486 15.0938C50.4254 15.2231 50.5277 15.3663 50.6318 15.5283C50.6841 15.6106 50.7375 15.6971 50.79 15.8096C50.828 15.9333 50.9441 16.031 50.8467 16.4238C50.778 16.7093 50.7054 16.9575 50.6523 17.1943C50.6262 17.3112 50.604 17.4252 50.5977 17.5166C50.5849 17.5907 50.626 17.7288 50.623 17.5186C50.6645 17.5658 50.7698 17.7188 50.8994 17.9297C50.9637 18.0397 51.0381 18.1685 51.1025 18.3682C51.162 18.5599 51.2284 18.8848 51.0869 19.2695C50.9938 19.5475 50.9042 19.7404 50.8311 19.9043C50.8487 19.9276 50.8701 19.9534 50.8906 19.9814C50.9756 20.0982 51.0768 20.2419 51.1807 20.4072C51.3576 20.7729 51.7254 21.0514 51.6436 22.1836C51.6101 22.4599 51.534 22.7405 51.418 23.0039C51.1323 23.5818 51.0979 23.6393 51.0674 23.8047L51.0664 23.8057C51.0876 23.8031 51.149 23.9286 51.2021 24.0078C51.275 24.1281 51.356 24.2635 51.4375 24.4023C51.6012 24.6813 51.7708 24.978 51.9355 25.2871C51.9988 25.4127 52.0675 25.5357 52.1582 25.8076C52.2021 25.9452 52.2553 26.1398 52.2803 26.4053C52.307 26.6683 52.2835 26.9743 52.25 27.1719C52.1353 27.8193 52.0196 28.0718 51.9307 28.3535C51.8394 28.6193 51.7605 28.8379 51.6895 29.0459C51.6277 29.2307 51.5715 29.4087 51.5518 29.5244C51.5426 29.5799 51.5435 29.6224 51.5684 29.6016C51.589 29.5697 51.6595 29.5187 51.7061 29.0986C51.734 29.1986 51.7607 28.975 51.7646 28.8955C51.7719 28.8051 51.7965 28.8127 51.8496 28.8604C52.0816 29.1935 52.3694 29.5541 52.7354 30.2402C53.5916 30.4259 54.4085 30.7161 55.1729 31.0967C55.2034 31.0457 55.2344 30.9928 55.2686 30.9395C55.4989 30.5657 55.9 30.1344 56.1084 29.9736C56.5664 29.5505 56.8265 29.4574 57.0391 29.3535C57.248 29.2616 57.4036 29.2112 57.5439 29.1689C57.8207 29.0879 58.0352 29.0447 58.2402 29.002C58.4492 28.9606 58.6467 28.9237 58.7969 28.8984C58.8421 28.8938 58.8879 28.887 58.9229 28.8818C58.9633 28.8117 59.0049 28.7405 59.0459 28.668C59.1231 28.5313 59.2013 28.3908 59.2871 28.2354C59.3833 28.0647 59.4326 27.9581 59.6533 27.5879C59.9763 27.0169 60.6917 26.5531 61.0342 26.4473C61.4098 26.3066 61.6587 26.2657 61.9053 26.2148C62.3085 26.116 62.8178 26.0681 62.7588 26.1201C62.7514 26.1453 62.749 26.1717 62.7568 26.1924C62.5674 26.3794 62.6186 26.4268 62.6533 26.3955C62.6962 26.3654 62.7582 26.2757 62.8184 26.165C62.8797 26.0526 62.9423 25.9177 63.0146 25.7549C63.0514 25.6724 63.0901 25.5832 63.1426 25.4697C63.2084 25.3463 63.2192 25.2458 63.4736 24.916C63.8726 24.4928 64.0981 24.4879 64.2783 24.4189C64.4571 24.3689 64.595 24.3486 64.7197 24.3311C64.9305 24.3046 65.1173 24.2853 65.2119 24.2812C65.2881 24.1314 65.3752 23.9304 65.5449 23.6748C65.8198 23.2939 65.9853 23.2807 66.1436 23.1914C66.2993 23.1215 66.4388 23.0759 66.5742 23.0332C66.8386 22.9509 67.0925 22.8873 67.3105 22.8232C67.334 22.785 67.3589 22.7406 67.3828 22.6943C67.462 22.5415 67.5388 22.3671 67.6445 22.1807C67.9449 21.705 68.2788 21.7422 68.4521 21.6133C68.488 21.5984 68.5345 21.5577 68.5781 21.5059C68.7086 21.353 68.8218 21.1239 69.0176 20.9551L69.0391 20.9375C69.1427 20.8951 69.2413 20.8704 69.3428 20.8467C69.4423 20.8204 69.5458 20.8229 69.6426 20.8271C69.5474 20.8532 69.4551 20.8798 69.376 20.9307C69.2988 20.9769 69.2212 21.0287 69.1553 21.082C69.0501 21.2554 69.0175 21.4673 68.9238 21.7051C68.8896 21.7877 68.8473 21.8788 68.7666 21.9678C68.5369 22.2099 68.2613 22.407 68.3252 22.458C68.2957 22.6055 68.2752 22.7805 68.2441 22.9707C68.2279 23.0668 68.21 23.1666 68.1738 23.2852C68.1191 23.4025 68.1401 23.5525 67.8047 23.7793C67.5626 23.9455 67.3424 24.0812 67.1445 24.2217C67.0469 24.2909 66.9545 24.3612 66.8887 24.4248C66.8296 24.4713 66.7677 24.6015 66.9062 24.4434C66.9054 24.506 66.8808 24.6899 66.8359 24.9336C66.8101 25.0584 66.7792 25.2039 66.6934 25.3955C66.6093 25.5777 66.4416 25.8635 66.0791 26.0547C65.8238 26.1989 65.6279 26.2826 65.4639 26.3555C65.4614 26.3846 65.4595 26.4177 65.4561 26.4521C65.441 26.5959 65.4202 26.7704 65.3867 26.9629C65.2734 27.353 65.3606 27.8063 64.542 28.5928C64.3322 28.7756 64.0877 28.9327 63.8252 29.0508C63.2267 29.2888 63.1624 29.3089 63.0293 29.4111H63.0273C63.0457 29.4218 63.0068 29.5573 62.9932 29.6523C62.9668 29.7905 62.9367 29.9457 62.9043 30.1035C62.8392 30.4203 62.7661 30.7538 62.6816 31.0938C62.6445 31.2295 62.6137 31.3671 62.499 31.6299C62.4396 31.7614 62.3486 31.9414 62.1895 32.1553C62.0333 32.3686 61.8114 32.5807 61.6543 32.7051C61.1357 33.1094 60.8807 33.2194 60.626 33.3691C60.3803 33.5055 60.1753 33.6147 59.9834 33.7217C59.8138 33.8177 59.6526 33.9126 59.5605 33.9854C59.5166 34.0204 59.4891 34.0526 59.5215 34.0537C59.558 34.0438 59.644 34.0535 59.96 33.7725C59.9142 33.865 60.0836 33.7165 60.1396 33.6602C60.2055 33.598 60.219 33.6205 60.2266 33.6914C60.1724 34.1224 60.1464 34.6198 59.9209 35.4727C59.9002 35.5481 59.8802 35.626 59.8516 35.7275C60.1232 36.2587 60.3532 36.8148 60.5322 37.3936C60.5735 37.3833 60.6157 37.3722 60.6592 37.3623C61.0854 37.258 61.6731 37.2328 61.9346 37.2646C62.5579 37.285 62.8089 37.4012 63.0332 37.4766C63.2463 37.5578 63.392 37.6318 63.5215 37.7002C63.7755 37.8368 63.9588 37.9567 64.1348 38.0703C64.3126 38.1877 64.4798 38.2992 64.6045 38.3867C64.6399 38.4152 64.6776 38.443 64.7061 38.4639C64.7841 38.4424 64.8632 38.4203 64.9434 38.3975C65.0943 38.3544 65.2487 38.3092 65.4189 38.2588C65.6071 38.2049 65.7178 38.1643 66.1348 38.0557C66.7654 37.8762 67.5997 38.0478 67.918 38.2129C68.2842 38.3766 68.4908 38.5222 68.7021 38.6592C69.0586 38.872 69.4544 39.1958 69.376 39.1914C69.3531 39.2041 69.3332 39.2211 69.3242 39.2412C69.0577 39.2412 69.0608 39.3104 69.1074 39.3125C69.1591 39.3212 69.266 39.3012 69.3867 39.2646C69.5094 39.2277 69.6486 39.1755 69.8145 39.1104C69.8986 39.0775 69.9893 39.041 70.1064 38.9971C70.2397 38.9554 70.3182 38.891 70.7305 38.835C71.3115 38.8139 71.4757 38.9694 71.6523 39.0469C71.8148 39.1368 71.9272 39.2198 72.0283 39.2949C72.1967 39.4239 72.3427 39.5409 72.4131 39.6045C72.5726 39.5513 72.7767 39.47 73.0771 39.4072C73.5401 39.3292 73.6675 39.4359 73.8428 39.4834C74.0027 39.543 74.1343 39.6081 74.2607 39.6729C74.5067 39.7999 74.7314 39.9335 74.9316 40.041C74.9753 40.0302 75.0245 40.0152 75.0742 39.999C75.238 39.9459 75.4148 39.8759 75.6211 39.8174C76.1691 39.6896 76.3808 39.9506 76.5947 39.9805C76.6307 39.995 76.6924 39.9984 76.7598 39.9922C76.9599 39.9749 77.2012 39.8919 77.459 39.9092L77.4863 39.9111C77.5901 39.9538 77.6776 40.0061 77.7666 40.0605C77.856 40.1118 77.9282 40.1858 77.9941 40.2568C77.908 40.2085 77.8236 40.1629 77.7314 40.1436C77.644 40.1223 77.5522 40.105 77.4678 40.0967C77.2711 40.1463 77.099 40.2744 76.8652 40.3779C76.7827 40.4128 76.6885 40.4475 76.5684 40.4541C76.2355 40.4651 75.9018 40.4117 75.9102 40.4922C75.7856 40.5765 75.6488 40.6872 75.4932 40.8008C75.414 40.8578 75.3309 40.9165 75.2217 40.9756C75.1004 41.0208 75.01 41.1423 74.6123 41.0684C74.3232 41.0167 74.0706 40.9589 73.8311 40.9199C73.7131 40.9007 73.5983 40.8848 73.5068 40.8838C73.4321 40.8754 73.2964 40.9245 73.5059 40.9092C73.4614 40.9532 73.3154 41.068 73.1123 41.21C73.0063 41.2807 72.882 41.3624 72.6865 41.4385C72.4987 41.5092 72.1777 41.5942 71.7852 41.4756C71.5023 41.399 71.3046 41.3211 71.1367 41.2578C71.1144 41.2769 71.0903 41.3001 71.0635 41.3223C70.9519 41.414 70.8143 41.5232 70.6553 41.6367C70.3006 41.8349 70.0444 42.219 68.9092 42.2041C68.6314 42.187 68.347 42.1267 68.0771 42.0264C67.4834 41.7754 67.4238 41.7443 67.2568 41.7236H67.2559C67.2598 41.7446 67.1385 41.8134 67.0625 41.8711C66.9468 41.9509 66.8164 42.0393 66.6826 42.1289C66.4137 42.3088 66.1271 42.496 65.8281 42.6787C65.7066 42.7492 65.5881 42.8252 65.3223 42.9316C65.1875 42.9835 64.9961 43.0473 64.7324 43.0879C64.4716 43.13 64.165 43.1253 63.9658 43.1035C63.3131 43.0273 63.0539 42.9267 62.7676 42.8545C62.4968 42.779 62.2734 42.7129 62.0615 42.6543C61.8736 42.6036 61.6928 42.5578 61.5762 42.5449C61.5202 42.539 61.4777 42.5428 61.5 42.5664C61.533 42.5851 61.5878 42.6521 62.0098 42.6738C61.912 42.7075 62.1359 42.7214 62.2158 42.7207C62.3065 42.7226 62.3013 42.7478 62.2568 42.8037C61.9157 43.0725 61.5473 43.4077 60.7881 43.8564C60.6811 43.9183 60.5744 43.9916 60.3701 44.0879C60.2224 44.4941 60.0482 44.8875 59.8535 45.2686C60.2272 45.4989 60.6586 45.9 60.8193 46.1084C61.2425 46.5664 61.3356 46.8265 61.4395 47.0391C61.5313 47.248 61.5818 47.4036 61.624 47.5439C61.7051 47.8208 61.7483 48.0352 61.791 48.2402C61.8324 48.4492 61.8703 48.6467 61.8955 48.7969C61.9001 48.842 61.906 48.8879 61.9111 48.9229C61.9812 48.9633 62.0525 49.0049 62.125 49.0459C62.2616 49.1231 62.4021 49.2013 62.5576 49.2871C62.7283 49.3833 62.8349 49.4327 63.2051 49.6533C63.776 49.9763 64.2398 50.6917 64.3457 51.0342C64.4864 51.4099 64.5282 51.6587 64.5791 51.9053C64.6779 52.3085 64.7248 52.8178 64.6729 52.7588C64.6478 52.7514 64.6212 52.749 64.6006 52.7568C64.4137 52.5675 64.3662 52.6186 64.3975 52.6533C64.4275 52.6963 64.518 52.758 64.6289 52.8184C64.7413 52.8797 64.8754 52.9424 65.0381 53.0146C65.1205 53.0514 65.2098 53.0901 65.3232 53.1426C65.4467 53.2084 65.5481 53.2192 65.8779 53.4736C66.3009 53.8726 66.306 54.0982 66.375 54.2783C66.425 54.4571 66.4444 54.595 66.4619 54.7197C66.4883 54.9305 66.5076 55.1173 66.5117 55.2119C66.6616 55.2882 66.8626 55.3752 67.1182 55.5449C67.499 55.8198 67.5123 55.9854 67.6016 56.1436C67.6715 56.2994 67.718 56.4387 67.7607 56.5742C67.843 56.8386 67.9057 57.0925 67.9697 57.3105C68.0081 57.3341 68.0532 57.3588 68.0996 57.3828C68.2525 57.4621 68.4268 57.5387 68.6133 57.6445C69.0886 57.9448 69.051 58.2788 69.1797 58.4521C69.1945 58.488 69.2354 58.5345 69.2871 58.5781C69.44 58.7086 69.669 58.8218 69.8379 59.0176L69.8555 59.0391C69.8979 59.1428 69.9235 59.2413 69.9473 59.3428C69.9735 59.4423 69.9701 59.5458 69.9658 59.6426C69.9397 59.5474 69.9142 59.4551 69.8633 59.376C69.817 59.2987 69.7643 59.2213 69.7109 59.1553C69.5375 59.0502 69.3257 59.0175 69.0879 58.9238C69.0052 58.8896 68.9142 58.8474 68.8252 58.7666C68.5831 58.5369 68.386 58.2613 68.335 58.3252C68.1876 58.2957 68.0132 58.2751 67.8232 58.2441C67.7271 58.2278 67.6266 58.2101 67.5078 58.1738C67.3905 58.1192 67.2404 58.14 67.0137 57.8047C66.8475 57.5626 66.7117 57.3424 66.5713 57.1445C66.502 57.0469 66.4318 56.9545 66.3682 56.8887C66.3217 56.8296 66.1916 56.7678 66.3496 56.9062C66.2867 56.9054 66.1028 56.8807 65.8594 56.8359C65.7346 56.8101 65.5889 56.7791 65.3975 56.6934C65.2152 56.6092 64.9294 56.4415 64.7383 56.0791C64.5941 55.8239 64.5113 55.6278 64.4385 55.4639C64.4093 55.4614 64.3755 55.4595 64.3408 55.4561C64.1971 55.441 64.0225 55.4202 63.8301 55.3867C63.4401 55.2736 62.9874 55.3602 62.2012 54.542C62.0183 54.3322 61.8603 54.0878 61.7422 53.8252C61.5041 53.2265 61.4842 53.1625 61.3818 53.0293V53.0273C61.3711 53.0457 61.2357 53.0068 61.1406 52.9932C61.0026 52.9668 60.8481 52.9366 60.6904 52.9043C60.3735 52.8392 60.0393 52.7661 59.6992 52.6816C59.5636 52.6446 59.4265 52.6135 59.1641 52.499C59.0325 52.4396 58.8517 52.3487 58.6377 52.1895C58.4246 52.0334 58.2132 51.8114 58.0889 51.6543C57.6845 51.1357 57.5736 50.8807 57.4238 50.626C57.2875 50.3803 57.1783 50.1753 57.0713 49.9834C56.9753 49.8138 56.8803 49.6526 56.8076 49.5605C56.7726 49.5167 56.7404 49.4891 56.7393 49.5215C56.7492 49.558 56.74 49.6436 57.0215 49.96C56.9283 49.9137 57.0764 50.0835 57.1328 50.1396C57.1951 50.2056 57.1725 50.219 57.1016 50.2266C56.6706 50.1724 56.173 50.1464 55.3203 49.9209C55.2818 49.9103 55.2431 49.8981 55.2002 49.8877C54.6315 50.173 54.034 50.4077 53.4121 50.5869C53.4178 50.6108 53.4251 50.6346 53.4307 50.6592C53.535 51.0855 53.5602 51.6732 53.5283 51.9346C53.508 52.558 53.3917 52.8088 53.3164 53.0332C53.2351 53.2464 53.1612 53.392 53.0928 53.5215C52.9561 53.7755 52.8372 53.9588 52.7236 54.1348C52.6062 54.3127 52.4938 54.4798 52.4062 54.6045C52.3778 54.6399 52.35 54.6776 52.3291 54.7061C52.3506 54.7841 52.3726 54.8632 52.3955 54.9434C52.4386 55.0943 52.4837 55.2487 52.5342 55.4189C52.5881 55.6072 52.6297 55.7177 52.7383 56.1348C52.9177 56.7655 52.7451 57.5998 52.5801 57.918C52.4164 58.2842 52.2717 58.4908 52.1348 58.7021C51.922 59.0586 51.5973 59.4543 51.6016 59.376C51.5889 59.3531 51.5719 59.3331 51.5518 59.3242C51.5517 59.0577 51.4826 59.0608 51.4805 59.1074C51.4718 59.1591 51.4918 59.2661 51.5283 59.3867C51.5653 59.5094 51.6175 59.6486 51.6826 59.8145C51.7155 59.8986 51.7519 59.9893 51.7959 60.1064C51.8375 60.2397 51.9019 60.3182 51.958 60.7305C51.9791 61.3117 51.8235 61.4756 51.7461 61.6523C51.6561 61.8148 51.5732 61.9272 51.498 62.0283C51.369 62.1967 51.252 62.3428 51.1885 62.4131C51.2416 62.5726 51.3239 62.7767 51.3867 63.0771C51.4647 63.54 51.3581 63.6675 51.3105 63.8428C51.2509 64.0028 51.1858 64.1343 51.1211 64.2607C50.994 64.5067 50.8604 64.7314 50.7529 64.9316C50.7638 64.9753 50.7778 65.0245 50.7939 65.0742C50.8471 65.238 50.918 65.4148 50.9766 65.6211C51.1042 66.169 50.8424 66.3808 50.8125 66.5947C50.798 66.6307 50.7946 66.6925 50.8008 66.7598C50.8181 66.9599 50.901 67.2012 50.8838 67.459L50.8818 67.4863C50.8392 67.59 50.7877 67.6777 50.7334 67.7666C50.6822 67.856 50.6072 67.9282 50.5361 67.9941C50.5844 67.908 50.6311 67.8236 50.6504 67.7314C50.6717 67.644 50.689 67.5522 50.6973 67.4678C50.6476 67.2711 50.5196 67.099 50.416 66.8652C50.3812 66.7827 50.3464 66.6886 50.3398 66.5684C50.3288 66.235 50.3817 65.901 50.3008 65.9102C50.2165 65.7856 50.1058 65.6488 49.9922 65.4932C49.9352 65.4141 49.8764 65.3308 49.8174 65.2217C49.7722 65.1005 49.6507 65.0098 49.7246 64.6123C49.7763 64.3232 49.8341 64.0706 49.873 63.8311C49.8923 63.7131 49.9082 63.5983 49.9092 63.5068C49.9176 63.4321 49.8685 63.2964 49.8838 63.5059C49.8398 63.4613 49.7251 63.3154 49.583 63.1123C49.5123 63.0063 49.4306 62.882 49.3545 62.6865C49.2838 62.4987 49.1988 62.1777 49.3174 61.7852C49.394 61.5023 49.4719 61.3046 49.5352 61.1367C49.5162 61.1145 49.4938 61.0901 49.4717 61.0635C49.3799 60.9519 49.2698 60.8143 49.1562 60.6553C48.9581 60.3007 48.575 60.0443 48.5898 58.9092C48.607 58.6314 48.6663 58.347 48.7666 58.0771C49.0177 57.4833 49.0486 57.4238 49.0693 57.2568L49.0703 57.2559C49.0498 57.2614 48.9809 57.139 48.9229 57.0625C48.843 56.9467 48.7537 56.8164 48.6641 56.6826C48.4841 56.4137 48.298 56.1271 48.1152 55.8281C48.0447 55.7065 47.9688 55.5881 47.8623 55.3223C47.8104 55.1875 47.7457 54.9961 47.7051 54.7324C47.6629 54.4716 47.6677 54.165 47.6895 53.9658C47.7657 53.3127 47.8672 53.0531 47.9395 52.7666C48.0148 52.4961 48.0801 52.2732 48.1387 52.0615C48.1894 51.8736 48.2351 51.6928 48.248 51.5762C48.2539 51.5202 48.2501 51.4777 48.2266 51.5C48.2078 51.533 48.1408 51.5884 48.1191 52.0098C48.0854 51.9121 48.0716 52.1359 48.0723 52.2158C48.0704 52.3065 48.0461 52.3003 47.9902 52.2559C47.7215 51.9147 47.3852 51.5473 46.9365 50.7881C46.8654 50.665 46.7769 50.5436 46.6592 50.2715C46.5378 50.2237 46.417 50.1752 46.2979 50.123C46.2072 50.281 46.1014 50.4524 45.9688 50.6377C45.7194 50.9986 45.2958 51.4077 45.0791 51.5576C44.6 51.956 44.3348 52.0363 44.1172 52.1289C43.9041 52.2096 43.7456 52.2513 43.6035 52.2861C43.3233 52.3526 43.1072 52.3851 42.9004 52.417C42.6897 52.4474 42.4911 52.4748 42.3398 52.4922C42.2944 52.4944 42.2472 52.4977 42.2119 52.501C42.1678 52.5689 42.1229 52.6386 42.0781 52.709C41.994 52.8413 41.9081 52.9773 41.8145 53.1279C41.7095 53.2934 41.6546 53.3978 41.415 53.7559C41.0629 54.3089 40.3242 54.7342 39.9766 54.8223C39.5942 54.9431 39.3435 54.9718 39.0947 55.0098C38.6868 55.0875 38.1756 55.1084 38.2373 55.0596C38.2459 55.0349 38.2499 55.0083 38.2432 54.9873C38.4408 54.8115 38.3936 54.7616 38.3574 54.79C38.3131 54.8178 38.2466 54.9044 38.1807 55.0117C38.1135 55.1208 38.0436 55.2523 37.9629 55.4111C37.9219 55.4915 37.8786 55.579 37.8203 55.6895C37.7482 55.8092 37.7316 55.9091 37.4609 56.2246C37.0406 56.6263 36.8143 56.6193 36.6309 56.6787C36.45 56.7193 36.3118 56.7332 36.1865 56.7441C35.9744 56.7596 35.7862 56.7685 35.6914 56.7676C35.6075 56.9132 35.5098 57.1092 35.3271 57.3555C35.0329 57.7215 34.8667 57.7269 34.7041 57.8076C34.545 57.8692 34.403 57.9078 34.2656 57.9434C33.9975 58.0117 33.7406 58.0617 33.5195 58.1143C33.4941 58.1513 33.4667 58.1953 33.4404 58.2402C33.3534 58.3886 33.2676 58.5587 33.1523 58.7393C32.8279 59.1982 32.4973 59.1445 32.3174 59.2637C32.2809 59.2765 32.2319 59.3148 32.1855 59.3643C32.0473 59.5101 31.9219 59.7332 31.7178 59.8916L31.6953 59.9082C31.5896 59.9451 31.4892 59.965 31.3867 59.9834C31.2861 60.0044 31.1832 59.9956 31.0869 59.9863C31.1833 59.9652 31.2768 59.9432 31.3584 59.8965C31.4379 59.8543 31.5184 59.8067 31.5869 59.7568C31.7006 59.5892 31.7447 59.3789 31.8506 59.1465C31.8891 59.0658 31.9371 58.9772 32.0225 58.8926C32.2641 58.6633 32.5486 58.4812 32.4883 58.4268C32.5254 58.2811 32.5539 58.107 32.5947 57.9189C32.616 57.8238 32.6392 57.7241 32.6816 57.6074C32.742 57.4932 32.7292 57.3423 33.0752 57.1338C33.3257 56.9804 33.5538 56.8565 33.7588 56.7266C33.8598 56.6625 33.9554 56.5971 34.0244 56.5371C34.0857 56.4937 34.1546 56.3678 34.0088 56.5176C34.013 56.4545 34.0462 56.2716 34.1035 56.0312C34.1358 55.9081 34.175 55.7646 34.2705 55.5781C34.3641 55.4005 34.5463 55.124 34.918 54.9521C35.1809 54.8212 35.3811 54.7469 35.5488 54.6826C35.5528 54.6539 35.5563 54.6207 35.5615 54.5869C35.584 54.4442 35.6138 54.2704 35.6572 54.0801C35.7903 53.6966 35.7272 53.2392 36.585 52.4971C36.8039 52.3255 37.0561 52.1813 37.3242 52.0771C37.9348 51.8705 38.0003 51.8541 38.1387 51.7588L38.1396 51.7578C38.1255 51.7404 38.1694 51.6113 38.1875 51.5195C38.221 51.383 38.2593 51.2299 38.2998 51.0742C38.3813 50.7613 38.4722 50.4317 38.5742 50.0967C38.6183 49.9632 38.6561 49.8274 38.7842 49.5713C38.8504 49.443 38.9501 49.2677 39.1201 49.0625C39.2872 48.8577 39.5202 48.658 39.6836 48.542C40.2224 48.1653 40.483 48.0679 40.7451 47.9316C40.9975 47.8083 41.2081 47.7091 41.4053 47.6123C41.5797 47.5253 41.7462 47.4389 41.8418 47.3711C41.8869 47.3387 41.9154 47.3086 41.8838 47.3057C41.8468 47.3137 41.7609 47.3001 41.4307 47.5645C41.4815 47.4742 41.3055 47.6123 41.2461 47.666C41.1771 47.7248 41.165 47.702 41.1611 47.6309C41.2348 47.2193 41.286 46.745 41.5303 45.9609C41.1012 45.2576 40.7536 44.4996 40.498 43.7002C40.435 43.7162 40.37 43.734 40.3018 43.749C39.8748 43.8504 39.2866 43.8715 39.0254 43.8379C38.4021 43.8133 38.1516 43.695 37.9277 43.6182C37.7154 43.5355 37.5703 43.4609 37.4414 43.3916C37.1884 43.2532 37.0062 43.1324 36.8311 43.0176C36.654 42.899 36.4874 42.7866 36.3633 42.6982C36.3281 42.6695 36.2911 42.6412 36.2627 42.6201C36.1845 42.6411 36.1048 42.6622 36.0244 42.6846C35.8732 42.7266 35.7184 42.7701 35.5479 42.8193C35.3592 42.872 35.2489 42.9128 34.8311 43.0186C34.1989 43.1939 33.3648 43.0159 33.0479 42.8486C32.6829 42.6825 32.4779 42.5358 32.2676 42.3975C31.9125 42.1822 31.5191 41.8554 31.5977 41.8604C31.6206 41.8478 31.6403 41.8306 31.6494 41.8105C31.9154 41.8124 31.9135 41.743 31.8672 41.7402C31.8156 41.7311 31.7079 41.7504 31.5869 41.7861C31.464 41.8223 31.3245 41.8735 31.1582 41.9375C31.0739 41.9698 30.9836 42.0057 30.8662 42.0488C30.7324 42.0895 30.6534 42.1537 30.2402 42.207C29.6588 42.2241 29.4956 42.0679 29.3193 41.9893C29.1576 41.8982 29.0459 41.8141 28.9453 41.7383C28.7778 41.6081 28.6323 41.4898 28.5625 41.4258C28.4027 41.4778 28.199 41.5584 27.8984 41.6191C27.4347 41.6941 27.3078 41.5868 27.1328 41.5381C26.9732 41.4773 26.8419 41.4113 26.7158 41.3457C26.4708 41.217 26.2473 41.0815 26.0479 40.9727C26.0042 40.9832 25.955 40.9979 25.9053 41.0137C25.7411 41.0657 25.5632 41.1343 25.3564 41.1914C24.8079 41.3152 24.5984 41.0529 24.3848 41.0215C24.3489 41.0066 24.2872 41.002 24.2197 41.0078C24.0193 41.0236 23.7774 41.1059 23.5195 41.0869L23.4922 41.084C23.3888 41.0406 23.3015 40.9886 23.2129 40.9336C23.1239 40.8818 23.0527 40.8068 22.9873 40.7354C23.073 40.7841 23.1562 40.8306 23.248 40.8506C23.3354 40.8725 23.4273 40.8905 23.5117 40.8994C23.7088 40.8511 23.8817 40.724 24.1162 40.6221C24.199 40.5878 24.2938 40.5536 24.4141 40.5479C24.7476 40.5391 25.0814 40.5949 25.0723 40.5137C25.1974 40.4303 25.3349 40.3204 25.4912 40.208C25.5706 40.1516 25.6543 40.0944 25.7637 40.0361C25.8853 39.9918 25.9766 39.8705 26.374 39.9473C26.6627 40.0009 26.915 40.0609 27.1543 40.1016C27.2722 40.1216 27.3871 40.1371 27.4785 40.1387C27.5532 40.1476 27.6888 40.0995 27.4795 40.1133C27.5246 40.0694 27.6715 39.9567 27.875 39.8164C27.9815 39.7464 28.1067 39.6656 28.3027 39.5908C28.4911 39.5214 28.8124 39.4373 29.2041 39.5586C29.4863 39.6371 29.6832 39.7168 29.8506 39.7812C29.873 39.7623 29.8978 39.7398 29.9248 39.7178C30.037 39.6268 30.1752 39.5187 30.335 39.4062C30.691 39.2105 30.9499 38.8289 32.085 38.8516C32.3626 38.8706 32.647 38.932 32.916 39.0342C33.5074 39.289 33.5668 39.32 33.7334 39.3418L33.7344 39.3428C33.73 39.3219 33.8531 39.2546 33.9297 39.1973C34.046 39.1182 34.1771 39.0301 34.3115 38.9414C34.5816 38.7634 34.8688 38.5781 35.1689 38.3975C35.291 38.3278 35.4102 38.2531 35.6768 38.1484C35.8118 38.0975 36.0037 38.0339 36.2676 37.9951C36.5286 37.9548 36.8352 37.9622 37.0342 37.9854C37.6868 38.0661 37.9454 38.169 38.2314 38.2432C38.5016 38.3205 38.7242 38.3872 38.9355 38.4473C39.1231 38.4992 39.3034 38.5468 39.4199 38.5605C39.4758 38.5668 39.5182 38.5628 39.4961 38.5391C39.4632 38.5199 39.4077 38.4532 38.9873 38.4287C39.0857 38.3956 38.8609 38.3797 38.7812 38.3799C38.6906 38.3773 38.6964 38.3524 38.7412 38.2969C39.0843 38.0304 39.4552 37.6975 40.2178 37.2539C40.3153 37.1984 40.4117 37.1319 40.582 37.0488C40.7658 36.5207 40.9891 36.0113 41.251 35.5254C41.1807 35.4851 41.1073 35.4428 41.0322 35.3955C40.6569 35.1678 40.2228 34.7698 40.0605 34.5625C39.6341 34.1073 39.539 33.8477 39.4336 33.6357C39.3404 33.4277 39.2892 33.2727 39.2461 33.1328C39.1631 32.8566 39.1183 32.6423 39.0742 32.4375C39.0314 32.2288 38.9921 32.0319 38.9658 31.8818C38.9609 31.8367 38.9546 31.7908 38.9492 31.7559C38.8788 31.7159 38.8073 31.6743 38.7344 31.6338C38.5972 31.5575 38.4559 31.4812 38.2998 31.3965C38.1285 31.3015 38.022 31.2522 37.6504 31.0342C37.0772 30.7152 36.6082 30.0029 36.5 29.6611C36.3568 29.2866 36.3143 29.0381 36.2617 28.792C36.1601 28.3895 36.1088 27.8801 36.1611 27.9385C36.1863 27.9457 36.2128 27.9474 36.2334 27.9395C36.4211 28.1272 36.4682 28.0774 36.4375 28.043C36.4072 28.0002 36.3164 27.9385 36.2051 27.8789C36.0922 27.8183 35.9573 27.7568 35.7939 27.6855C35.7112 27.6493 35.6217 27.6113 35.5078 27.5596C35.384 27.4946 35.2835 27.4845 34.9521 27.2324C34.526 26.8362 34.5195 26.6104 34.4492 26.4307C34.398 26.2523 34.3768 26.1148 34.3584 25.9902C34.3305 25.7797 34.3104 25.5927 34.3057 25.498C34.1553 25.4228 33.9531 25.3369 33.6963 25.1689C33.3139 24.8968 33.2993 24.7318 33.209 24.5742C33.138 24.4189 33.0915 24.2797 33.0479 24.1445C32.9637 23.8806 32.8986 23.6269 32.833 23.4092C32.7945 23.386 32.7496 23.3615 32.7031 23.3379C32.5497 23.2597 32.3748 23.1846 32.1875 23.0801C31.7099 22.783 31.7453 22.4488 31.6152 22.2764C31.6001 22.2406 31.559 22.1947 31.5068 22.1514C31.3531 22.0219 31.1233 21.9104 30.9531 21.7158L30.9355 21.6943C30.8923 21.5908 30.8663 21.4921 30.8418 21.3906C30.8149 21.2913 30.8177 21.1876 30.8213 21.0908C30.848 21.1858 30.8744 21.2777 30.9258 21.3564C30.9726 21.4334 31.0252 21.5115 31.0791 21.5771C31.2533 21.6811 31.4656 21.7117 31.7041 21.8037C31.7871 21.8374 31.8781 21.8796 31.9678 21.96C32.2115 22.188 32.4104 22.4617 32.4609 22.3975C32.6086 22.4259 32.7833 22.4449 32.9736 22.4746C33.0699 22.4902 33.1701 22.5075 33.2891 22.543C33.4068 22.5969 33.557 22.5753 33.7861 22.9092C33.9539 23.15 34.0907 23.3695 34.2324 23.5664C34.3024 23.6636 34.3735 23.7559 34.4375 23.8213C34.4846 23.88 34.6149 23.9399 34.4561 23.8027C34.5189 23.8032 34.7028 23.8261 34.9463 23.8691C35.0713 23.8941 35.2171 23.9244 35.4092 24.0088C35.592 24.0916 35.8795 24.2577 36.0732 24.6191C36.2192 24.8734 36.304 25.0689 36.3779 25.2324C36.407 25.2347 36.4401 25.236 36.4746 25.2393C36.6183 25.2533 36.7928 25.2726 36.9854 25.3047C37.3762 25.4153 37.8289 25.3254 38.6211 26.1387C38.8054 26.3471 38.9651 26.5899 39.085 26.8516C39.3271 27.4485 39.347 27.5131 39.4502 27.6455V27.6475C39.4608 27.629 39.5963 27.6666 39.6914 27.6797C39.8297 27.7051 39.9847 27.7353 40.1426 27.7666C40.4598 27.8295 40.7943 27.8993 41.1348 27.9814C41.2707 28.0176 41.4084 28.0483 41.6719 28.1611C41.8038 28.2197 41.9851 28.3091 42.2002 28.4668C42.4144 28.6215 42.6275 28.8418 42.7529 28.998C43.1608 29.5138 43.2733 29.7678 43.4248 30.0215C43.5629 30.2663 43.6739 30.4709 43.7822 30.6621C43.8793 30.8309 43.9745 30.9915 44.0479 31.083C44.0832 31.1267 44.1163 31.1535 44.1172 31.1211C44.107 31.0845 44.1152 30.9985 43.832 30.6846C43.9254 30.7302 43.7767 30.5619 43.7197 30.5059C43.6571 30.4405 43.6785 30.427 43.749 30.4189C44.1804 30.4701 44.6787 30.4932 45.5332 30.7129C45.6864 30.7538 45.854 30.7755 46.1963 30.9219C46.2886 30.8803 46.3809 30.8387 46.4746 30.7998C46.4201 30.6066 46.3664 30.3888 46.3242 30.1338C46.2452 29.702 46.2545 29.1135 46.3018 28.8545C46.3588 28.2334 46.4897 27.99 46.5781 27.7705C46.6719 27.5624 46.7541 27.4211 46.8301 27.2959C46.9814 27.0505 47.1116 26.875 47.2354 26.7061C47.363 26.5354 47.4844 26.3752 47.5791 26.2559C47.6096 26.2222 47.6396 26.1864 47.6621 26.1592C47.6452 26.08 47.6285 25.9994 47.6104 25.918C47.5763 25.7648 47.5403 25.6084 47.5 25.4355C47.4572 25.2442 47.4227 25.132 47.3389 24.709C47.1967 24.0686 47.418 23.2453 47.6016 22.9375C47.7865 22.5817 47.9436 22.3845 48.0928 22.1816C48.3262 21.8384 48.673 21.4621 48.6641 21.54C48.6754 21.5636 48.6913 21.5846 48.7109 21.5947C48.6952 21.8608 48.7647 21.8619 48.7695 21.8154C48.7813 21.7643 48.7677 21.6559 48.7383 21.5332C48.7086 21.4086 48.6646 21.267 48.6094 21.0977C48.5815 21.0117 48.5507 20.9194 48.5137 20.7998C48.48 20.664 48.4203 20.5823 48.3887 20.167C48.4019 19.5853 48.5666 19.4307 48.6543 19.2588C48.7536 19.102 48.8429 18.9949 48.9238 18.8984C49.0627 18.7378 49.1883 18.5986 49.2559 18.5322C49.2122 18.3698 49.1426 18.162 49.0977 17.8584C49.047 17.3914 49.161 17.2709 49.2188 17.0986C49.2878 16.9424 49.3605 16.8148 49.4326 16.6924C49.574 16.4543 49.7207 16.2375 49.8398 16.0439C49.8316 15.9997 49.8199 15.9499 49.8066 15.8994C49.7632 15.7328 49.7035 15.5522 49.6572 15.3428C49.562 14.7882 49.8355 14.5927 49.8779 14.3809C49.8946 14.3458 49.9017 14.2844 49.8994 14.2168C49.8941 14.0159 49.825 13.7702 49.8574 13.5137L49.8613 13.4863C49.91 13.3853 49.9668 13.3005 50.0264 13.2148C50.0828 13.1287 50.1615 13.0616 50.2363 13ZM51.1416 62.1631C51.1254 62.1703 51.1345 62.2387 51.1582 62.3213C51.1627 62.3382 51.1692 62.3551 51.1748 62.373C51.1948 62.2257 51.1518 62.1521 51.1416 62.1631ZM49.6494 60.752C49.6578 60.7218 49.5922 60.668 49.5879 60.9971C49.5893 60.9928 49.5904 60.9877 49.5918 60.9834C49.6251 60.886 49.6493 60.7978 49.6494 60.752ZM49.1602 56.7803C49.1526 56.7487 49.1208 56.7685 49.0938 56.8711C49.0648 56.9712 49.0677 57.1404 49.0752 57.2188C49.0759 57.2246 49.075 57.23 49.0752 57.2344C49.1294 57.039 49.1761 56.8458 49.1602 56.7803ZM35.8477 56.5664C35.8316 56.5591 35.7862 56.6113 35.7402 56.6836C35.7307 56.698 35.7224 56.7146 35.7129 56.7305C35.8351 56.6481 35.8621 56.5676 35.8477 56.5664ZM64.25 55.1104C64.2353 55.0826 64.1482 55.089 64.377 55.3271C64.375 55.3232 64.373 55.3193 64.3711 55.3154C64.3266 55.223 64.2821 55.1433 64.25 55.1104ZM66.3027 55.0664C66.2962 55.0828 66.35 55.1258 66.4248 55.168C66.4399 55.1769 66.4571 55.1845 66.4736 55.1934C66.3843 55.0743 66.3023 55.0514 66.3027 55.0664ZM35.9121 54.5137C35.9399 54.4995 35.9348 54.4153 35.6885 54.6279C35.6921 54.6265 35.6966 54.6256 35.7002 54.624C35.7953 54.5842 35.8781 54.544 35.9121 54.5137ZM52.168 53.9453C52.1327 53.8988 52.1472 53.9902 52.167 54.0791C52.1996 54.2162 52.234 54.3557 52.2715 54.4971C52.2707 54.4063 52.2671 54.2948 52.249 54.2012C52.2218 54.0514 52.1851 53.9709 52.168 53.9453ZM61.1123 52.625C61.0848 52.6078 61.0751 52.6452 61.1279 52.7373C61.1776 52.8289 61.298 52.9475 61.3584 52.998C61.3629 53.0016 61.3669 53.0048 61.3701 53.0078C61.2716 52.8308 61.1697 52.6605 61.1123 52.625ZM42.6729 51.877C42.6844 51.8193 42.6256 51.8901 42.5723 51.9639C42.4913 52.0795 42.4091 52.1982 42.3281 52.3203C42.3956 52.2593 42.4779 52.1825 42.5361 52.1064C42.6293 51.9874 42.6649 51.907 42.6729 51.877ZM38.5566 51.5098C38.5743 51.4836 38.5373 51.473 38.4434 51.5205C38.3495 51.5653 38.2257 51.6795 38.1719 51.7373C38.1688 51.7408 38.1648 51.7435 38.1621 51.7461C38.3437 51.657 38.519 51.5649 38.5566 51.5098ZM50.5 32C45.8056 32 42 35.8056 42 40.5C42 45.1944 45.8056 49 50.5 49C55.1944 49 59 45.1944 59 40.5C59 35.8056 55.1944 32 50.5 32ZM61.2627 48.4951C61.2046 48.4867 61.2798 48.5413 61.3564 48.5908C61.4759 48.6655 61.5977 48.7411 61.7236 48.8154C61.6593 48.7514 61.5786 48.6741 61.5 48.6201C61.3755 48.5326 61.2928 48.5013 61.2627 48.4951ZM50.5 32.5C54.9183 32.5 58.5 36.0817 58.5 40.5C58.5 44.9183 54.9183 48.5 50.5 48.5C46.0817 48.5 42.5 44.9183 42.5 40.5C42.5 36.0817 46.0817 32.5 50.5 32.5ZM49.9971 45.2061C49.953 45.1531 49.8744 45.1456 49.8213 45.1895C49.7683 45.2334 49.761 45.3121 49.8047 45.3652C49.8114 45.3732 49.8214 45.3791 49.8291 45.3857C49.8298 45.3889 49.8304 45.3922 49.8311 45.3945C49.8439 45.439 49.87 45.49 49.9268 45.543C50.0137 45.6241 50.0728 45.6737 50.123 45.71C50.1795 45.7506 50.2699 45.8069 50.3779 45.8779L50.3789 45.8789C50.4202 45.9061 50.4986 45.958 50.6074 46.0049C50.6646 46.0296 50.7181 46.0557 50.7793 46.0771C50.8236 46.0926 50.8697 46.1089 50.9121 46.1211C50.9539 46.1331 51.0015 46.1442 51.0469 46.1455C51.1292 46.1479 51.1888 46.144 51.2148 46.1416C51.2394 46.1393 51.2629 46.1346 51.2832 46.1309C51.3042 46.127 51.324 46.1237 51.3477 46.1201C51.4099 46.1108 51.4582 46.1048 51.5322 46.1289C51.5746 46.1428 51.6303 46.1668 51.6787 46.2188C51.7327 46.2768 51.763 46.328 51.7949 46.374C51.8075 46.3922 51.8473 46.4535 51.8877 46.5918C51.9121 46.6755 51.9352 46.7738 51.9424 46.8291C51.9516 46.9009 51.9494 46.9891 51.9248 47.0918L51.8984 47.1758C51.897 47.1786 51.8945 47.1822 51.8926 47.1865C51.8917 47.1886 51.8902 47.192 51.8887 47.1963C51.8881 47.1979 51.8834 47.211 51.8818 47.2275C51.8813 47.2332 51.8787 47.2616 51.8936 47.293C51.9028 47.3124 51.9203 47.3357 51.9492 47.3506C51.9777 47.365 52.0059 47.366 52.0244 47.3633C52.0558 47.3586 52.0772 47.3427 52.0811 47.3398C52.0881 47.3346 52.0933 47.3296 52.0957 47.3271C52.1041 47.3186 52.1105 47.3098 52.1113 47.3086C52.1185 47.2982 52.1272 47.2835 52.1357 47.2676C52.1548 47.2323 52.1836 47.1738 52.2178 47.0908C52.2543 47.0021 52.291 46.8961 52.3086 46.8203C52.3329 46.7153 52.3431 46.634 52.3447 46.5391C52.3459 46.4704 52.3495 46.3289 52.2979 46.1514C52.2526 45.9958 52.206 45.8536 52.1436 45.7666C52.0629 45.6546 52.0185 45.6024 51.958 45.541C51.8873 45.4692 51.7926 45.3854 51.7529 45.3496C51.749 45.3461 51.7438 45.3412 51.7363 45.333C51.7301 45.3262 51.719 45.3134 51.708 45.3027C51.6898 45.2852 51.6348 45.2353 51.5547 45.2471C51.5195 45.2524 51.4915 45.2712 51.4863 45.2744H51.4854L51.4102 45.3271C51.3885 45.3427 51.3589 45.3624 51.3096 45.3887C51.1248 45.4871 51.0636 45.5118 51.0117 45.5342C50.9974 45.5403 50.983 45.546 50.9727 45.5508C50.962 45.5557 50.9542 45.5597 50.9473 45.5625C50.935 45.5674 50.9282 45.5691 50.9238 45.5693C50.9238 45.5693 50.9169 45.569 50.9033 45.5674C50.8897 45.5658 50.8706 45.5624 50.8467 45.5576C50.798 45.5479 50.729 45.5311 50.6416 45.5029C50.5471 45.4724 50.4411 45.4311 50.3359 45.3828C50.2292 45.3338 50.1261 45.2805 50.0732 45.25C50.0405 45.2311 50.0184 45.2175 50.0039 45.208C49.9972 45.2036 49.9931 45.2006 49.9912 45.1992C49.9923 45.2004 49.9945 45.203 49.9971 45.2061ZM51.3066 45.873C51.2996 45.8741 51.2926 45.8758 51.2861 45.877C51.2921 45.875 51.2985 45.8732 51.3047 45.8711L51.3066 45.873ZM49.6494 43.3457C49.5694 43.3402 49.4739 43.3612 49.2969 43.4346C49.2757 43.4433 49.2596 43.4513 49.2393 43.4609C49.2179 43.471 49.1854 43.4863 49.125 43.5127C49.001 43.5668 48.7675 43.667 48.6123 43.7246C48.4666 43.7787 48.4026 43.7899 48.3428 43.7949C48.1976 43.7983 48.0853 43.7874 48.0146 43.7715C47.9843 43.7634 47.9599 43.7548 47.9287 43.7402C47.8663 43.711 47.7911 43.7374 47.7617 43.7998C47.7324 43.8623 47.7598 43.9375 47.8223 43.9668C47.8681 43.9883 47.9072 44.0016 47.9531 44.0137L47.957 44.0146C48.0544 44.0369 48.1896 44.0486 48.3486 44.0449H48.3555C48.4464 44.038 48.5329 44.0207 48.6992 43.959C48.8617 43.8987 49.1008 43.7962 49.2246 43.7422C49.2875 43.7147 49.323 43.6987 49.3467 43.6875C49.371 43.676 49.3787 43.6718 49.3926 43.666C49.5632 43.5952 49.6132 43.5935 49.6318 43.5947C49.6675 43.5973 49.7141 43.604 49.8398 43.6426C49.9174 43.6664 50.0814 43.7229 50.1689 43.7461C50.2762 43.7746 50.3874 43.8285 50.5498 43.7949C50.6585 43.7724 50.7335 43.7466 50.8145 43.7246C50.8687 43.7099 50.986 43.6825 51.0596 43.6768C51.1459 43.67 51.2112 43.6564 51.3037 43.667C51.3823 43.6761 51.4575 43.6865 51.5967 43.7549C51.7181 43.8146 51.9186 43.9191 52.0312 43.9766C52.1416 44.0328 52.1714 44.0465 52.2295 44.0605C52.2763 44.0719 52.3476 44.0861 52.4355 44.0947C52.5137 44.1023 52.6222 44.1117 52.7002 44.1035C52.8436 44.0883 52.9294 44.0713 52.998 44.0469C53.0336 44.0342 53.0723 44.0202 53.0957 44.0117C53.1602 43.988 53.1933 43.9162 53.1699 43.8516C53.1463 43.7868 53.0745 43.753 53.0098 43.7764C52.9835 43.7859 52.9487 43.7992 52.9141 43.8115C52.8733 43.826 52.8111 43.841 52.6748 43.8555C52.6267 43.8605 52.5442 43.8539 52.46 43.8457C52.3862 43.8385 52.3265 43.8267 52.2881 43.8174C52.2712 43.8133 52.2622 43.8101 52.2471 43.8037C52.2282 43.7957 52.1995 43.7819 52.1445 43.7539C52.0363 43.6987 51.8304 43.5909 51.707 43.5303C51.5354 43.446 51.4311 43.4303 51.333 43.4189C51.2085 43.4046 51.0996 43.4231 51.04 43.4277C50.9413 43.4354 50.8046 43.4683 50.749 43.4834C50.6504 43.5101 50.5985 43.5292 50.499 43.5498C50.4122 43.5677 50.39 43.5454 50.2334 43.5039C50.15 43.4818 50.0092 43.4328 49.9131 43.4033C49.7781 43.3619 49.7115 43.3501 49.6494 43.3457ZM36.8896 42.4619C36.7524 42.4936 36.6133 42.527 36.4717 42.5635C36.5624 42.5633 36.6738 42.5604 36.7676 42.543C36.9168 42.5169 36.9974 42.4809 37.0234 42.4639C37.0706 42.4287 36.9789 42.4427 36.8896 42.4619ZM54.248 36.0498C54.2077 36.0546 54.1529 36.066 54.1104 36.0732C54.0814 36.0781 53.9324 36.0991 53.7334 36.1357C53.6392 36.1531 53.513 36.1865 53.3613 36.2217C53.3231 36.2306 53.2926 36.2387 53.2676 36.2461C53.2421 36.2536 53.2245 36.26 53.2051 36.2646C53.1746 36.2718 53.052 36.3001 52.8711 36.3291C52.7489 36.3487 52.623 36.3454 52.4922 36.3516C52.4535 36.3534 52.4113 36.3535 52.3652 36.3535C52.3201 36.3535 52.2705 36.3532 52.2227 36.3555C52.128 36.36 52.0523 36.3862 52.002 36.4033C51.9373 36.4254 51.8787 36.4438 51.8291 36.4639C51.796 36.4774 51.6745 36.543 51.5137 36.6387C51.4397 36.6827 51.3882 36.7242 51.3486 36.7646C51.3105 36.8037 51.2834 36.8423 51.2666 36.8643C51.2128 36.9348 51.1816 36.9818 51.1465 37.0488C51.1233 37.0933 51.1149 37.1425 51.1123 37.1836C51.1096 37.2263 51.1124 37.2708 51.1172 37.3115C51.1267 37.3928 51.1462 37.4726 51.1611 37.5225C51.1759 37.5717 51.1958 37.6305 51.2148 37.6836C51.2471 37.7732 51.305 37.921 51.3262 37.9746C51.3407 38.0116 51.3995 38.1914 51.4268 38.3096C51.4403 38.3683 51.4428 38.4182 51.4443 38.5771C51.4448 38.6284 51.4362 38.6543 51.4131 38.7666C51.3667 38.9922 51.3286 39.0612 51.3008 39.1387C51.2866 39.1782 51.2761 39.2135 51.2676 39.2393C51.2586 39.2666 51.2518 39.284 51.2451 39.2979C51.2083 39.3741 51.1821 39.4578 51.1543 39.5322C51.1234 39.615 51.1003 39.6689 51.0439 39.8984C51.0212 39.9912 51.021 40.0873 51.0166 40.1406C51.0118 40.1988 51.022 40.2797 51.0352 40.3545C51.0489 40.4329 51.069 40.5187 51.0908 40.5928C51.1245 40.7067 51.2046 40.8795 51.251 40.9736C51.292 41.0568 51.3282 41.1172 51.3584 41.1641C51.3505 41.1692 51.3439 41.1748 51.3389 41.1787C51.3238 41.1904 51.3089 41.2035 51.2998 41.2119C51.2947 41.2166 51.2905 41.2207 51.2871 41.2236C51.2845 41.2259 51.2828 41.2272 51.2822 41.2275C51.2635 41.2411 51.2378 41.258 51.21 41.2754C51.1862 41.2902 51.1545 41.3092 51.1348 41.3242C51.0856 41.3618 51.0026 41.42 50.9355 41.4736C50.9144 41.4905 50.8961 41.506 50.8721 41.5264C50.8471 41.5475 50.8121 41.577 50.7539 41.624C50.7136 41.6566 50.7042 41.6665 50.6875 41.6787C50.6734 41.6889 50.6471 41.7115 50.6191 41.7354C50.5878 41.7621 50.5449 41.7989 50.4902 41.8438C50.4386 41.8861 50.3955 41.919 50.3633 41.9443C50.3346 41.9669 50.3062 41.9895 50.291 42.0039C50.2895 42.0053 50.2877 42.0076 50.2842 42.0107C50.2809 42.0137 50.2754 42.0179 50.2705 42.0225C50.2697 42.0232 50.2684 42.0237 50.2676 42.0244C50.2434 42.0103 50.2196 41.9981 50.1982 41.9893C50.146 41.9677 50.0937 41.9527 50.0596 41.9443C49.9929 41.928 49.9197 41.9184 49.8555 41.9111C49.7732 41.9018 49.6789 41.9252 49.6064 41.9502C49.5305 41.9764 49.4558 42.0122 49.4062 42.0439L49.3994 42.0488L49.3926 42.0547C49.3567 42.0854 49.3223 42.1147 49.2969 42.1455C49.292 42.1512 49.2872 42.1571 49.2783 42.166C49.2295 42.2148 49.2295 42.294 49.2783 42.3428C49.3272 42.3909 49.4065 42.3914 49.4551 42.3428C49.4634 42.3345 49.4752 42.3227 49.4873 42.3086L49.4893 42.3047C49.4969 42.2952 49.5117 42.2821 49.5479 42.251C49.5789 42.2321 49.6315 42.2062 49.6885 42.1865C49.7526 42.1644 49.8025 42.1565 49.8271 42.1592C49.8874 42.166 49.9487 42.1749 50 42.1875C50.0294 42.1947 50.0675 42.2053 50.1025 42.2197C50.1405 42.2355 50.1615 42.2511 50.1689 42.2598L50.1699 42.2607C50.1708 42.2619 50.1726 42.2637 50.1738 42.2656C50.1766 42.2702 50.1797 42.2768 50.1836 42.2842C50.1937 42.3035 50.1984 42.314 50.2109 42.3389C50.2198 42.3564 50.2338 42.3845 50.2529 42.4072C50.2682 42.4254 50.3248 42.4844 50.4102 42.4609C50.4288 42.4557 50.4444 42.4466 50.4482 42.4443C50.455 42.4404 50.4625 42.4357 50.4688 42.4316C50.4815 42.4233 50.4992 42.4111 50.5166 42.3994C50.553 42.3748 50.6002 42.3431 50.6543 42.3115C50.8067 42.2227 50.9162 42.157 50.9463 42.1387C51.0485 42.0764 51.1672 42.0073 51.2822 41.9219C51.3349 41.8828 51.4107 41.8323 51.4775 41.7744C51.522 41.7359 51.5589 41.7017 51.5977 41.665C51.6338 41.6309 51.6649 41.6058 51.6953 41.5801C51.7219 41.5576 51.7581 41.5273 51.7832 41.4893C51.7936 41.4734 51.8019 41.4545 51.8066 41.4346L51.8096 41.3721L51.7881 41.3125C51.7791 41.2972 51.7687 41.285 51.7607 41.2764C51.7102 41.2215 51.6774 41.185 51.6533 41.1504C51.6048 41.0806 51.5571 41.0277 51.4756 40.8623C51.4285 40.7668 51.3569 40.6131 51.3301 40.5225C51.311 40.4578 51.2934 40.381 51.2812 40.3115C51.2684 40.2384 51.2637 40.1847 51.2656 40.1611C51.2725 40.0782 51.2706 40.0251 51.2871 39.958C51.3407 39.7398 51.3602 39.6954 51.3887 39.6191C51.4232 39.5266 51.4405 39.4687 51.4707 39.4062C51.485 39.3765 51.4956 39.3456 51.5049 39.3174C51.5147 39.2875 51.5235 39.2589 51.5361 39.2236C51.5593 39.1591 51.6071 39.0659 51.6582 38.8174C51.6772 38.7248 51.6951 38.6609 51.6943 38.5752C51.6932 38.4552 51.6888 38.3823 51.6787 38.3145C51.6954 38.2919 51.7207 38.2579 51.7578 38.2041C51.7772 38.1761 51.8156 38.1378 51.8662 38.0977C51.9073 38.0652 52.0028 38.0147 52.1318 37.9619C52.291 37.8969 52.4019 37.8735 52.4473 37.8643C52.5372 37.8459 52.6511 37.8205 52.7539 37.8076C52.8362 37.7974 52.8963 37.7978 52.9922 37.793C53.0281 37.7912 53.0949 37.7941 53.168 37.7998C53.3832 37.8167 53.4465 37.8393 53.5156 37.8545C53.5688 37.8662 53.6273 37.8842 53.7266 37.918C53.7879 37.9389 53.8331 37.9638 53.96 38.0166C53.9894 38.0289 54.0312 38.049 54.0811 38.0723C54.1294 38.0949 54.1847 38.1204 54.2373 38.1426C54.4261 38.2221 54.5417 38.2519 54.584 38.2598C54.6601 38.2738 54.75 38.2872 54.8779 38.2988C55.0162 38.3113 55.1171 38.2989 55.1484 38.2949C55.1974 38.2888 55.2547 38.2802 55.3018 38.2734C55.2801 38.313 55.2492 38.373 55.2256 38.417L55.2246 38.4189C55.1942 38.4756 55.1669 38.5267 55.1387 38.5664C55.0985 38.6228 55.0546 38.6881 55.0166 38.7334C54.9869 38.7688 54.9635 38.7945 54.9092 38.8408C54.8743 38.8705 54.8343 38.9002 54.7646 38.9512C54.7434 38.9667 54.7168 38.9836 54.6562 39.0195C54.5644 39.074 54.475 39.1012 54.4336 39.1123C54.343 39.1366 54.1923 39.1577 54.124 39.1631C54.031 39.1703 54.0043 39.1594 53.9424 39.1523C53.9008 39.1476 53.8542 39.1442 53.7148 39.1201C53.6995 39.1175 53.6864 39.1142 53.6689 39.1094C53.6513 39.1045 53.6278 39.0977 53.5977 39.0908C53.5783 39.0864 53.5588 39.0801 53.54 39.0752C53.5493 39.0656 53.56 39.0564 53.5684 39.0459C53.5892 39.0197 53.6108 38.9836 53.6191 38.9375C53.6275 38.8907 53.6312 38.835 53.6299 38.7842C53.6287 38.7398 53.624 38.6744 53.5986 38.625C53.5958 38.6196 53.5923 38.6124 53.5879 38.6025C53.5838 38.5935 53.5779 38.5811 53.5723 38.5693C53.5624 38.5488 53.5425 38.5107 53.5107 38.4814C53.5013 38.4725 53.4404 38.4028 53.3564 38.3447C53.2853 38.2956 53.1827 38.2515 53.0771 38.2324C53.0308 38.2241 52.8668 38.1804 52.709 38.2832C52.6703 38.3084 52.63 38.3385 52.5967 38.373C52.565 38.406 52.5291 38.4532 52.5166 38.5127C52.512 38.5346 52.486 38.6111 52.5029 38.6943C52.5117 38.7377 52.524 38.8263 52.5723 38.9004C52.5766 38.9071 52.5808 38.9142 52.585 38.9209C52.5777 38.9214 52.5702 38.9212 52.5635 38.9219C52.5022 38.9284 52.4524 38.9461 52.4443 38.9482C52.4059 38.9576 52.3668 38.9616 52.3242 38.9678L52.3145 38.9707C52.2685 38.9813 52.2125 38.9949 52.1553 39.0098C52.1401 39.0135 52.1045 39.0214 52.0625 39.0537C52.0079 39.0958 51.998 39.1739 52.04 39.2285C52.0813 39.2817 52.1566 39.2927 52.2109 39.2539C52.2121 39.2535 52.2149 39.2524 52.2168 39.252H52.2178C52.2725 39.2378 52.3243 39.2236 52.3662 39.2139C52.4027 39.2087 52.4537 39.2026 52.5039 39.1904C52.5478 39.1797 52.5484 39.1753 52.5898 39.1709C52.6289 39.1668 52.6985 39.1663 52.8281 39.1816C52.9954 39.2015 53.0908 39.2208 53.1318 39.2295C53.2071 39.2455 53.2505 39.2584 53.2939 39.2686C53.3169 39.2739 53.3498 39.2832 53.3945 39.2959C53.4373 39.308 53.4887 39.3228 53.542 39.335C53.5654 39.3403 53.5829 39.3452 53.6025 39.3506C53.6222 39.356 53.6445 39.3624 53.6719 39.3672C53.8195 39.3927 53.874 39.3959 53.9141 39.4004C53.952 39.4048 54.0185 39.4217 54.1426 39.4121C54.2205 39.406 54.3888 39.3831 54.499 39.3535C54.5512 39.3395 54.6649 39.3051 54.7842 39.2344C54.8452 39.1982 54.8805 39.1765 54.9121 39.1533C54.9783 39.1048 55.0276 39.0685 55.0713 39.0312C55.1393 38.9732 55.1724 38.936 55.208 38.8936C55.2545 38.8381 55.3081 38.7582 55.3418 38.7109C55.381 38.6558 55.4167 38.5905 55.4453 38.5371L55.4463 38.5352C55.4716 38.4879 55.5046 38.4264 55.5254 38.3887C55.554 38.3366 55.5726 38.309 55.5918 38.2803C55.596 38.2739 55.6018 38.268 55.6152 38.252C55.6243 38.2411 55.6392 38.2204 55.6523 38.1963C55.6904 38.1866 55.7228 38.1799 55.7432 38.1748L55.7695 38.166C55.7743 38.1645 55.7797 38.1635 55.7852 38.1621C55.8516 38.145 55.8916 38.0764 55.875 38.0098C55.858 37.9432 55.7903 37.9024 55.7236 37.9189C55.711 37.9221 55.7005 37.926 55.6924 37.9287C55.6878 37.9302 55.6846 37.931 55.6826 37.9316C55.6599 37.9373 55.6223 37.9467 55.5781 37.958C55.5285 37.9676 55.4818 37.9757 55.4404 37.9873C55.394 38.0004 55.3683 38.0106 55.3242 38.0186C55.2838 38.0258 55.1951 38.0371 55.1172 38.0469C55.0934 38.0499 55.0126 38.06 54.9004 38.0498C54.7801 38.0389 54.6981 38.0272 54.6299 38.0146C54.6109 38.0111 54.5132 37.9872 54.335 37.9121C54.2872 37.892 54.2352 37.8685 54.1865 37.8457C54.1396 37.8238 54.0924 37.801 54.0566 37.7861C53.9556 37.7441 53.8764 37.7044 53.8066 37.6807C53.7066 37.6466 53.6371 37.6253 53.5693 37.6104C53.5041 37.596 53.4233 37.5693 53.1875 37.5508C53.1172 37.5453 53.035 37.5403 52.9805 37.543C52.8956 37.5472 52.8174 37.5477 52.7227 37.5596C52.6076 37.574 52.4807 37.6021 52.3975 37.6191C52.3432 37.6302 52.2159 37.6574 52.0371 37.7305C51.9063 37.784 51.7819 37.8453 51.7109 37.9014C51.6719 37.9323 51.6333 37.969 51.5996 38.0059C51.5819 37.9503 51.5666 37.9044 51.5586 37.8838C51.5373 37.8296 51.481 37.6842 51.4502 37.5986C51.4327 37.55 51.4149 37.4961 51.4014 37.4512C51.3894 37.4113 51.3727 37.3456 51.3652 37.2822C51.3615 37.2506 51.3609 37.2221 51.3623 37.1992C51.363 37.188 51.3638 37.1792 51.3652 37.1729C51.3666 37.1669 51.3682 37.1641 51.3682 37.1641C51.395 37.1129 51.4179 37.0785 51.4658 37.0156C51.4899 36.984 51.5031 36.9643 51.5273 36.9395C51.55 36.9163 51.5839 36.8878 51.6416 36.8535C51.7223 36.8055 51.7908 36.7667 51.8408 36.7393C51.8658 36.7256 51.8864 36.7148 51.9014 36.707C51.9172 36.6989 51.9238 36.6953 51.9238 36.6953C51.9646 36.6788 52.0093 36.6645 52.082 36.6396C52.1305 36.6231 52.1776 36.6082 52.2344 36.6055C52.2753 36.6035 52.3192 36.6035 52.3652 36.6035C52.4101 36.6035 52.4591 36.6037 52.5049 36.6016C52.6128 36.5965 52.7709 36.5977 52.9111 36.5752C53.0989 36.5451 53.227 36.516 53.2617 36.5078C53.2898 36.5012 53.3161 36.4931 53.3389 36.4863C53.3623 36.4794 53.3869 36.472 53.418 36.4648C53.5821 36.4268 53.6913 36.3979 53.7783 36.3818C53.9768 36.3453 54.1099 36.3263 54.1514 36.3193C54.2087 36.3097 54.2446 36.3027 54.2773 36.2988C54.2796 36.2985 54.2823 36.298 54.2842 36.2979C54.3317 36.3243 54.3922 36.3197 54.4326 36.2793C54.4331 36.2788 54.4345 36.2775 54.4355 36.2764C54.4369 36.2749 54.439 36.2724 54.4414 36.2695C54.4457 36.2644 54.4563 36.2505 54.4639 36.2305C54.4726 36.2072 54.4776 36.1738 54.4639 36.1387C54.4577 36.123 54.4489 36.1102 54.4404 36.1006L54.416 36.0791L54.3652 36.0557C54.3492 36.051 54.3337 36.0489 54.3213 36.0479C54.2958 36.0458 54.2697 36.0473 54.248 36.0498ZM66.7803 41.6328C66.7487 41.6404 66.7684 41.6731 66.8711 41.7002C66.9712 41.7291 67.1404 41.7263 67.2188 41.7188C67.2246 41.718 67.2299 41.718 67.2344 41.7178C67.039 41.6636 66.8459 41.6169 66.7803 41.6328ZM28.6553 41.3955C28.6384 41.3999 28.6213 41.4067 28.6035 41.4121C28.7505 41.433 28.8243 41.3912 28.8135 41.3809C28.8065 41.3646 28.738 41.3724 28.6553 41.3955ZM70.752 41.1436C70.7218 41.1353 70.6683 41.2017 70.9971 41.2061C70.9928 41.2046 70.9877 41.2026 70.9834 41.2012C70.8861 41.1679 70.7977 41.1436 70.752 41.1436ZM26.123 40.958C26.1054 40.9602 26.0853 40.9651 26.0645 40.9697C26.2509 40.9891 26.1661 40.942 26.123 40.958ZM30.0039 39.8389C30.101 39.8728 30.1886 39.898 30.2344 39.8984C30.2644 39.9076 30.3205 39.8416 29.9902 39.835C29.9945 39.8364 29.9996 39.8374 30.0039 39.8389ZM72.373 39.6191C72.226 39.5992 72.1525 39.641 72.1631 39.6514C72.1702 39.6676 72.2387 39.6594 72.3213 39.6357C72.3382 39.6313 72.3552 39.6247 72.373 39.6191ZM46.6416 37.5107C46.5676 37.5096 46.4649 37.525 46.3438 37.5518C46.2791 37.566 46.1723 37.5968 46.1025 37.6182C46.0237 37.6423 45.9825 37.6606 45.9082 37.7012C45.8381 37.7394 45.7336 37.7999 45.6738 37.8359C45.5724 37.897 45.4942 37.9648 45.4453 38.002C45.4322 38.0119 45.3691 38.05 45.2705 38.1025C45.2264 38.126 45.2048 38.1335 45.1455 38.1582C45.1128 38.1719 45.0528 38.193 44.9707 38.2139C44.8893 38.2345 44.7869 38.2531 44.6992 38.2646C44.6131 38.2759 44.5436 38.2792 44.4834 38.2793C44.4235 38.2793 44.3742 38.276 44.3252 38.2695C44.2752 38.2629 44.2242 38.2533 44.1865 38.2441C44.1505 38.2354 44.1267 38.2268 44.0996 38.2178C44.0344 38.1964 43.9643 38.2319 43.9424 38.2969C43.9206 38.3624 43.956 38.4332 44.0215 38.4551C44.0499 38.4646 44.0815 38.475 44.1279 38.4863C44.1732 38.4973 44.2322 38.5097 44.292 38.5176C44.3528 38.5256 44.4131 38.5294 44.4834 38.5293C44.5537 38.5292 44.6338 38.5255 44.7314 38.5127C44.7464 38.5107 44.7618 38.5072 44.7773 38.5049C44.9152 38.6282 45.049 38.7483 45.126 38.8154C45.1651 38.8495 45.1949 38.8736 45.2314 38.8984C45.2667 38.9224 45.3077 38.9456 45.3691 38.9795C45.4942 39.0485 45.7243 39.1731 45.9414 39.2627C46.1602 39.353 46.3587 39.4063 46.5244 39.4395C46.6897 39.4725 46.8206 39.4855 46.9102 39.4912C47.0015 39.497 47.0537 39.495 47.124 39.4854C47.1865 39.4768 47.2719 39.4605 47.3105 39.4541C47.3741 39.4435 47.4388 39.4292 47.5117 39.4131C47.551 39.4044 47.5911 39.395 47.625 39.3857C47.6561 39.3772 47.6938 39.3652 47.7236 39.3486C47.7727 39.3213 47.8046 39.296 47.8252 39.2754C47.8738 39.2267 47.8737 39.1474 47.8252 39.0986C47.7764 39.0502 47.6971 39.0501 47.6484 39.0986C47.6472 39.0999 47.6352 39.1117 47.6025 39.1299C47.6024 39.1299 47.5993 39.1321 47.5918 39.1348C47.5837 39.1376 47.5721 39.1408 47.5586 39.1445C47.5313 39.152 47.497 39.1603 47.458 39.1689C47.3827 39.1856 47.3252 39.1987 47.2695 39.208C47.2171 39.2167 47.1491 39.2301 47.0898 39.2383C47.0388 39.2453 47.0033 39.2471 46.9258 39.2422C46.8458 39.2371 46.7262 39.2249 46.5732 39.1943C46.4983 39.1793 46.4159 39.1594 46.3281 39.1338C46.3296 39.1334 46.3316 39.1333 46.333 39.1328C46.3963 39.1096 46.446 39.089 46.4844 39.0693C46.5229 39.0496 46.5592 39.0264 46.5869 38.9932C46.5906 38.9888 46.5952 38.983 46.6055 38.9717C46.6143 38.9618 46.6254 38.9488 46.6367 38.9346C46.6577 38.908 46.6888 38.8644 46.7012 38.8105C46.7125 38.7611 46.7251 38.7015 46.7148 38.627C46.71 38.5916 46.7024 38.5529 46.6904 38.5166C46.6789 38.4818 46.6608 38.4398 46.6309 38.4053C46.6287 38.402 46.5944 38.3573 46.5605 38.3271C46.5165 38.2881 46.4542 38.2515 46.3691 38.2354C46.304 38.2231 46.2326 38.2181 46.1699 38.2207C46.1128 38.2232 46.0419 38.2326 45.9893 38.2607C45.9575 38.2778 45.9154 38.3045 45.8799 38.3428C45.8632 38.3608 45.8453 38.3808 45.8301 38.4004C45.8146 38.4204 45.797 38.4472 45.7861 38.4795C45.7716 38.5229 45.7568 38.5832 45.7471 38.6377C45.7421 38.6655 45.7377 38.6942 45.7354 38.7197C45.7333 38.742 45.7319 38.7729 45.7363 38.8008C45.741 38.83 45.7518 38.8696 45.7607 38.9033C45.6545 38.85 45.5572 38.7982 45.4893 38.7607C45.4268 38.7263 45.3954 38.7079 45.3711 38.6914C45.3483 38.6759 45.3284 38.6604 45.29 38.627C45.2404 38.5837 45.1664 38.5168 45.082 38.4414C45.1494 38.4225 45.2037 38.4043 45.2412 38.3887C45.2903 38.3682 45.3306 38.3542 45.3887 38.3232C45.4852 38.2718 45.5643 38.225 45.5957 38.2012C45.6608 38.1517 45.7163 38.1019 45.8027 38.0498C45.8602 38.0152 45.9619 37.9562 46.0283 37.9199C46.0903 37.8861 46.1159 37.8757 46.1758 37.8574C46.2449 37.8363 46.3432 37.8079 46.3975 37.7959C46.5151 37.77 46.5943 37.7601 46.6377 37.7607C46.6999 37.7617 46.7457 37.7539 46.9062 37.7832C46.9608 37.7931 46.9783 37.7954 47.0117 37.8047C47.0804 37.8238 47.1474 37.8475 47.2021 37.8652C47.2301 37.8743 47.2966 37.8988 47.3799 37.9404C47.4326 37.9668 47.4535 37.9738 47.5312 38.0195C47.6018 38.061 47.7207 38.1309 47.7803 38.1709C47.8503 38.2179 47.8732 38.2352 47.8955 38.2529C47.9032 38.2592 47.9184 38.2767 47.9434 38.3076L47.9463 38.3115C47.9576 38.3255 47.9661 38.3349 47.9746 38.3457C47.9783 38.3505 47.9814 38.3546 47.9834 38.3574L47.9844 38.3594C48.018 38.4194 48.0941 38.4406 48.1543 38.4072C48.2144 38.3737 48.2364 38.2975 48.2031 38.2373C48.1932 38.2196 48.1798 38.2017 48.1709 38.1904C48.1616 38.1787 48.1485 38.1639 48.1406 38.1543L48.1377 38.1504C48.1196 38.128 48.085 38.0839 48.0508 38.0566C48.0213 38.0333 47.9925 38.0126 47.9199 37.9639C47.853 37.9189 47.7271 37.8442 47.6582 37.8037C47.571 37.7525 47.5333 37.7373 47.4922 37.7168C47.3976 37.6695 47.3191 37.6399 47.2793 37.627C47.2331 37.612 47.1543 37.5845 47.0791 37.5635C47.0311 37.5501 46.9947 37.5452 46.9502 37.5371C46.7653 37.5035 46.6963 37.5116 46.6416 37.5107ZM33.7725 39.3477C33.7667 39.3483 33.7612 39.3485 33.7568 39.3486C33.9519 39.4042 34.1444 39.4521 34.21 39.4365C34.2415 39.4292 34.2216 39.3969 34.1191 39.3691C34.0194 39.3396 33.851 39.3407 33.7725 39.3477ZM64.4971 38.5225C64.4063 38.5233 64.2948 38.5259 64.2012 38.5439C64.0514 38.5712 63.9709 38.6079 63.9453 38.625C63.8985 38.6604 63.9901 38.6458 64.0791 38.626C64.2162 38.5934 64.3557 38.5599 64.4971 38.5225ZM48.5938 37.8477C48.5609 37.8488 48.535 37.8502 48.5098 37.8506H48.5068C48.4947 37.8511 48.4783 37.8527 48.4609 37.8564C48.4415 37.8607 48.4246 37.8674 48.4111 37.874C48.3496 37.9048 48.3249 37.9793 48.3555 38.041C48.3846 38.0992 48.4522 38.1238 48.5117 38.1006L48.5137 38.0996V38.1006C48.5147 38.1006 48.5166 38.1006 48.5176 38.1006L48.5166 38.0996C48.5442 38.0991 48.5728 38.0987 48.6025 38.0977C48.6318 38.0966 48.6654 38.0952 48.7061 38.0947C48.7328 38.097 48.8209 38.1118 48.9355 38.1553C48.9921 38.1767 49.0154 38.1922 49.0391 38.207C49.0704 38.2266 49.1009 38.2457 49.1387 38.2695C49.1693 38.2888 49.2081 38.3135 49.2344 38.3252C49.2973 38.3526 49.3716 38.3236 49.3994 38.2607C49.4269 38.1979 49.3976 38.1247 49.335 38.0967C49.3345 38.0965 49.3322 38.0954 49.3291 38.0938C49.3253 38.0917 49.3202 38.0884 49.3145 38.085C49.3024 38.0779 49.2876 38.0687 49.2715 38.0586C49.2428 38.0406 49.199 38.0121 49.1719 37.9951C49.1399 37.9751 49.1015 37.9511 49.0244 37.9219C48.89 37.8709 48.7758 37.8496 48.7217 37.8457V37.8447H48.7119C48.6645 37.8452 48.6261 37.8465 48.5938 37.8477ZM55.624 38.2305C55.6225 38.2317 55.6154 38.2378 55.6055 38.2432C55.6044 38.2438 55.6016 38.2434 55.5996 38.2441C55.6103 38.2385 55.6219 38.2336 55.6309 38.2246C55.6294 38.226 55.6267 38.2283 55.624 38.2305ZM48.5215 38.0986C48.5202 38.0991 48.5181 38.0993 48.5166 38.0996V38.0986C48.5183 38.0981 48.5208 38.0985 48.5225 38.0977L48.5215 38.0986ZM46.6494 36.165C46.5946 36.167 46.5761 36.1694 46.5215 36.1748C46.4457 36.1823 46.3782 36.1894 46.3271 36.1953C46.2812 36.2006 46.2375 36.2063 46.2148 36.2119C46.152 36.2276 46.0186 36.2558 45.9326 36.2793C45.8576 36.2999 45.7993 36.3269 45.7734 36.3369C45.7001 36.3651 45.651 36.3873 45.6162 36.4043C45.5765 36.4237 45.5699 36.428 45.5625 36.4307L45.5615 36.4297L45.5527 36.4346L45.5117 36.4482C45.5078 36.4493 45.5054 36.4499 45.5039 36.4502C45.5027 36.4505 45.5004 36.4507 45.4971 36.4512C45.4289 36.461 45.381 36.5246 45.3906 36.5928C45.4006 36.6609 45.4641 36.7088 45.5322 36.6992C45.5518 36.6964 45.5651 36.693 45.5781 36.6895H45.5791C45.6026 36.6828 45.6242 36.6735 45.6426 36.666L45.6436 36.667C45.6706 36.6576 45.7026 36.6401 45.7256 36.6289C45.7546 36.6148 45.7966 36.5956 45.8623 36.5703C45.9074 36.553 45.9392 36.5369 45.999 36.5205C46.0869 36.4965 46.1908 36.4753 46.2754 36.4541C46.2774 36.4538 46.2842 36.453 46.2969 36.4512C46.3118 36.4491 46.3322 36.4462 46.3564 36.4434C46.4054 36.4377 46.4708 36.4312 46.5459 36.4238C46.6009 36.4184 46.6126 36.4167 46.6592 36.415C46.7123 36.4131 46.7922 36.4099 46.8369 36.4111C46.8997 36.4129 46.9234 36.4127 47 36.4229C47.0696 36.432 47.1931 36.45 47.2588 36.46C47.3534 36.4743 47.4148 36.4824 47.4824 36.5049C47.5321 36.5215 47.5953 36.5446 47.6836 36.6113C47.7584 36.668 47.9117 36.7891 47.999 36.8535C48.059 36.8977 48.1026 36.926 48.1387 36.9492C48.1744 36.9722 48.2014 36.9894 48.2324 37.0137C48.2569 37.0329 48.3036 37.0734 48.3623 37.0898C48.3639 37.0904 48.3667 37.092 48.377 37.0957C48.3873 37.0994 48.4021 37.1043 48.4199 37.1094C48.456 37.1196 48.5047 37.1294 48.5762 37.1377C48.7159 37.1538 48.7966 37.166 48.8682 37.1602C48.8961 37.1579 48.9196 37.155 48.9385 37.1533C48.9577 37.1516 48.9722 37.1503 48.9824 37.1494C49.0508 37.1434 49.1023 37.0832 49.0967 37.0146C49.0909 36.9463 49.0303 36.8951 48.9619 36.9004C48.9504 36.9013 48.934 36.9036 48.916 36.9053C48.8975 36.907 48.8747 36.9089 48.8477 36.9111C48.8079 36.9144 48.7635 36.908 48.6045 36.8896C48.5433 36.8826 48.5087 36.874 48.4883 36.8682C48.4783 36.8653 48.4697 36.8631 48.4619 36.8604C48.4557 36.8581 48.4423 36.8532 48.4297 36.8496C48.4315 36.8502 48.4302 36.85 48.4238 36.8457C48.4201 36.8432 48.4155 36.8389 48.4092 36.834C48.4022 36.8286 48.3952 36.8238 48.3857 36.8164C48.3446 36.7842 48.3095 36.7618 48.2744 36.7393C48.2396 36.7169 48.2011 36.6919 48.1475 36.6523C48.0586 36.5868 47.9195 36.4768 47.834 36.4121C47.7178 36.3242 47.6287 36.2897 47.5625 36.2676C47.4694 36.2365 47.3816 36.2257 47.2969 36.2129C47.2304 36.2028 47.1041 36.1853 47.0322 36.1758C46.9429 36.164 46.9093 36.163 46.8438 36.1611C46.7888 36.1596 46.6984 36.1633 46.6494 36.165ZM54.2383 36.1289C54.2437 36.1188 54.2477 36.1112 54.25 36.1084C54.2532 36.1046 54.2567 36.1017 54.2559 36.1025C54.2482 36.1102 54.2435 36.12 54.2383 36.1289ZM39.1377 31.8623C39.2025 31.926 39.2842 32.0023 39.3633 32.0557C39.488 32.142 39.5703 32.1726 39.6006 32.1787C39.6587 32.1868 39.5837 32.1329 39.5068 32.084C39.3869 32.0101 39.2641 31.9358 39.1377 31.8623ZM63.0078 29.4229C62.8306 29.5215 62.6603 29.6243 62.625 29.6816C62.6084 29.7089 62.6456 29.7177 62.7373 29.665C62.8289 29.6153 62.9476 29.495 62.998 29.4346C63.0017 29.43 63.0048 29.4261 63.0078 29.4229ZM58.8154 29.0703C58.7513 29.1347 58.6741 29.2153 58.6201 29.2939C58.533 29.418 58.5015 29.4999 58.4951 29.5303C58.4866 29.5885 58.5413 29.5132 58.5908 29.4365C58.6654 29.3172 58.7412 29.1961 58.8154 29.0703ZM39.4619 27.667C39.5616 27.8433 39.665 28.0126 39.7227 28.0479C39.7503 28.0648 39.7595 28.0273 39.7061 27.9355C39.6556 27.8443 39.5343 27.7268 39.4736 27.6768C39.4691 27.6732 39.4652 27.67 39.4619 27.667ZM47.708 26.3711C47.7034 26.4618 47.7003 26.5733 47.7129 26.668C47.7312 26.819 47.7628 26.9012 47.7783 26.9277C47.8108 26.9762 47.8016 26.8839 47.7871 26.7939C47.7626 26.6552 47.737 26.5144 47.708 26.3711ZM65.3154 26.4229C65.2227 26.4675 65.1431 26.5118 65.1104 26.5439C65.0826 26.5587 65.0889 26.6449 65.3271 26.416C65.3231 26.418 65.3195 26.4209 65.3154 26.4229ZM34.3438 25.5166C34.4335 25.6345 34.5154 25.6572 34.5156 25.6426C34.5221 25.6261 34.4677 25.5837 34.3926 25.542C34.3774 25.5332 34.3604 25.5253 34.3438 25.5166ZM36.4453 25.3799C36.4906 25.4724 36.536 25.5525 36.5684 25.585C36.5835 25.6124 36.6696 25.6044 36.4395 25.3682C36.4414 25.3721 36.4434 25.376 36.4453 25.3799ZM65.1934 24.3193C65.0743 24.4086 65.0514 24.4917 65.0664 24.4912C65.0829 24.4975 65.1258 24.4429 65.168 24.3682C65.1769 24.353 65.1845 24.3359 65.1934 24.3193ZM51.0596 23.8271C50.9939 24.0191 50.9361 24.2091 50.9482 24.2754C50.9539 24.3073 50.9874 24.2893 51.0205 24.1885C51.0552 24.0902 51.0625 23.9214 51.0596 23.8428C51.0592 23.8368 51.0595 23.8316 51.0596 23.8271ZM50.7656 20.0537C50.7266 20.149 50.6971 20.2355 50.6943 20.2812C50.6836 20.3108 50.7467 20.3705 50.7705 20.041C50.7688 20.0452 50.7673 20.0496 50.7656 20.0537ZM49.2676 18.5732C49.2389 18.7193 49.2772 18.7955 49.2881 18.7852C49.3042 18.7781 49.2999 18.7093 49.2812 18.626C49.2778 18.6088 49.2721 18.5914 49.2676 18.5732Z" fill="#dcb700"/>
</g>
<defs>
<clipPath id="clip0_12_100">
<rect width="100" height="100" fill="white"/>
</clipPath>
</defs>
</svg>
