<svg width="111" height="51" viewBox="0 0 111 51" fill="none" xmlns="http://www.w3.org/2000/svg">
<path d="M28.64 49.92C28.5867 50.1333 28.2933 50.24 27.76 50.24C27.2267 50.24 26.9333 50.1333 26.88 49.92L6.48 6.64C5.68 4.93333 5.01333 3.70667 4.48 2.96C4 2.21333 3.44 1.70666 2.8 1.44C2.21333 1.12 1.41333 0.959997 0.4 0.959997C0.24 0.959997 0.16 0.799998 0.16 0.479999C0.16 0.16 0.24 0 0.4 0C1.2 0 1.76 0.0266663 2.08 0.079999C3.14667 0.186664 4.53333 0.239997 6.24 0.239997C9.81333 0.239997 12.8267 0.186664 15.28 0.079999C15.9733 0.0266663 16.8267 0 17.84 0C18 0 18.08 0.16 18.08 0.479999C18.08 0.799998 18 0.959997 17.84 0.959997C16.5067 0.959997 15.5467 1.09333 14.96 1.36C14.4267 1.62666 14.16 2.10666 14.16 2.8C14.16 3.70667 14.7733 5.46666 16 8.08L31.12 40.16L27.76 45.68L36.96 21.28L38.48 23.52L28.64 49.92ZM73.36 0C73.4667 0 73.52 0.16 73.52 0.479999C73.52 0.799998 73.4667 0.959997 73.36 0.959997C71.3867 0.959997 69.52 1.81333 67.76 3.52C66.0533 5.17333 64.64 7.46667 63.52 10.4L48.72 49.92C48.6667 50.1333 48.3733 50.24 47.84 50.24C47.3067 50.24 47.0133 50.1333 46.96 49.92L26.56 6.64C25.6533 4.72 24.8 3.30667 24 2.4C23.2 1.44 22.3467 0.959997 21.44 0.959997C21.28 0.959997 21.2 0.799998 21.2 0.479999C21.2 0.16 21.28 0 21.44 0C21.9733 0 22.5867 0.0533326 23.28 0.159998C24.0267 0.213331 25.0667 0.239997 26.4 0.239997C29.44 0.239997 31.9733 0.186664 34 0.079999C34.5333 0.0266663 35.2267 0 36.08 0C36.24 0 36.32 0.16 36.32 0.479999C36.32 0.799998 36.24 0.959997 36.08 0.959997C35.3333 0.959997 34.7733 1.06666 34.4 1.28C34.08 1.44 33.92 1.76 33.92 2.24C33.92 3.14666 34.64 5.09333 36.08 8.08L51.36 40.16L47.92 45.68L60.88 10.96C61.52 9.25333 61.84 7.70666 61.84 6.32C61.84 4.66667 61.4133 3.36 60.56 2.4C59.76 1.44 58.6667 0.959997 57.28 0.959997C57.12 0.959997 57.04 0.799998 57.04 0.479999C57.04 0.16 57.12 0 57.28 0L60.96 0.079999C62.88 0.186664 64.64 0.239997 66.24 0.239997C67.3067 0.239997 68.5333 0.186664 69.92 0.079999L73.36 0ZM41.6 10.16C42.7733 7.12 43.36 4.82666 43.36 3.28C43.36 1.73333 42.6933 0.959997 41.36 0.959997C41.2 0.959997 41.12 0.799998 41.12 0.479999C41.12 0.16 41.2 0 41.36 0C41.7867 0 42.24 0.0533326 42.72 0.159998C43.2533 0.213331 44.5333 0.239997 46.56 0.239997C47.4667 0.239997 48.56 0.186664 49.84 0.079999L52.8 0C52.9067 0 52.96 0.16 52.96 0.479999C52.96 0.799998 52.9067 0.959997 52.8 0.959997C49.2267 0.959997 46.2667 4.10666 43.92 10.4L38.96 23.52L37.44 21.28L41.6 10.16ZM110.091 0C110.251 0 110.331 0.16 110.331 0.479999C110.331 0.799998 110.251 0.959997 110.091 0.959997C108.171 0.959997 106.331 1.81333 104.571 3.52C102.811 5.22666 101.397 7.52 100.331 10.4L85.5306 49.92C85.4773 50.1333 85.184 50.24 84.6506 50.24C84.1173 50.24 83.824 50.1333 83.7706 49.92L63.3706 6.64C62.4106 4.72 61.4506 3.30667 60.4906 2.4C59.5306 1.44 58.464 0.959997 57.2906 0.959997C57.1306 0.959997 57.0506 0.799998 57.0506 0.479999C57.0506 0.16 57.1306 0 57.2906 0C58.0906 0 58.6506 0.0266663 58.9706 0.079999C60.0373 0.186664 61.424 0.239997 63.1306 0.239997C67.7173 0.239997 71.6106 0.186664 74.8106 0.079999C75.664 0.0266663 76.7306 0 78.0106 0C78.1706 0 78.2506 0.16 78.2506 0.479999C78.2506 0.799998 78.1706 0.959997 78.0106 0.959997C76.4106 0.959997 75.1573 1.30666 74.2506 2C73.3973 2.64 72.9706 3.57333 72.9706 4.8C72.9706 5.70666 73.264 6.8 73.8506 8.08L88.4106 39.12L84.6506 45.68L98.0906 10.16C98.624 8.66666 98.8906 7.38667 98.8906 6.32C98.8906 4.66667 98.384 3.36 97.3706 2.4C96.4106 1.44 94.9973 0.959997 93.1306 0.959997C92.9706 0.959997 92.8906 0.799998 92.8906 0.479999C92.8906 0.16 92.9706 0 93.1306 0L97.0506 0.079999C99.2906 0.186664 101.291 0.239997 103.051 0.239997C104.064 0.239997 105.317 0.186664 106.811 0.079999L110.091 0Z" fill="#DCB700"/>
</svg>
